<svg xmlns="http://www.w3.org/2000/svg" xmlns:xlink="http://www.w3.org/1999/xlink" width="1600" zoomAndPan="magnify" viewBox="0 0 1200 299.999988" height="400" preserveAspectRatio="xMidYMid meet" version="1.0"><defs><g/></defs><rect x="-120" width="1440" fill="#ffffff" y="-29.999999" height="359.999986" fill-opacity="1"/><rect x="-120" width="1440" fill="#000000" y="-29.999999" height="359.999986" fill-opacity="1"/><g fill="#ffffff" fill-opacity="1"><g transform="translate(140.569348, 248.150005)"><g><path d="M 71.171875 0 L 60.46875 0 L 57.796875 -8.171875 C 52.046875 -1.929688 45.359375 1.1875 37.734375 1.1875 C 26.941406 1.1875 18.625 -2.15625 12.78125 -8.84375 C 6.9375 -15.53125 4.015625 -24.960938 4.015625 -37.140625 C 4.015625 -49.421875 6.9375 -58.878906 12.78125 -65.515625 C 18.625 -72.148438 26.941406 -75.46875 37.734375 -75.46875 C 47.046875 -75.46875 54.523438 -73.039062 60.171875 -68.1875 C 65.816406 -63.34375 69.382812 -56.460938 70.875 -47.546875 L 47.390625 -43.390625 C 46.203125 -50.910156 43.035156 -54.671875 37.890625 -54.671875 C 34.617188 -54.671875 32.113281 -53.160156 30.375 -50.140625 C 28.644531 -47.117188 27.78125 -42.785156 27.78125 -37.140625 C 27.78125 -31.597656 28.644531 -27.316406 30.375 -24.296875 C 32.113281 -21.273438 34.617188 -19.765625 37.890625 -19.765625 C 40.660156 -19.765625 42.789062 -21.894531 44.28125 -26.15625 L 37.4375 -26.15625 L 37.4375 -39.375 L 71.609375 -39.375 Z M 71.171875 0 "/></g></g></g><g fill="#ffffff" fill-opacity="1"><g transform="translate(216.780734, 248.150005)"><g><path d="M 61.0625 -32.09375 C 66.40625 -27.832031 69.078125 -21.195312 69.078125 -12.1875 L 69.078125 0 L 47.09375 0 L 47.09375 -15.296875 C 47.09375 -21.835938 44.023438 -25.65625 37.890625 -26.75 L 28.96875 -26.75 L 28.96875 0 L 4.90625 0 L 4.90625 -74.28125 L 44.125 -74.28125 C 52.25 -74.28125 58.515625 -72.222656 62.921875 -68.109375 C 67.328125 -64.003906 69.53125 -58.140625 69.53125 -50.515625 C 69.53125 -42.191406 66.707031 -36.050781 61.0625 -32.09375 Z M 40.859375 -44.578125 C 45.609375 -44.578125 47.984375 -46.40625 47.984375 -50.0625 C 47.984375 -53.832031 45.609375 -55.71875 40.859375 -55.71875 L 28.96875 -55.71875 L 28.96875 -44.578125 Z M 40.859375 -44.578125 "/></g></g></g><g fill="#ffffff" fill-opacity="1"><g transform="translate(290.318036, 248.150005)"><g><path d="M 53.34375 -10.84375 L 28.375 -10.84375 L 24.359375 0 L 1.046875 0 L 28.828125 -74.28125 L 53.1875 -74.28125 L 80.671875 0 L 57.203125 0 Z M 46.796875 -28.671875 L 41 -49.03125 L 34.921875 -28.671875 Z M 46.796875 -28.671875 "/></g></g></g><g fill="#ffffff" fill-opacity="1"><g transform="translate(371.580454, 248.150005)"><g><path d="M 44.125 -74.28125 C 52.25 -74.28125 58.515625 -72.175781 62.921875 -67.96875 C 67.328125 -63.757812 69.53125 -57.789062 69.53125 -50.0625 C 69.53125 -42.832031 67.5 -37.1875 63.4375 -33.125 C 59.375 -29.070312 53.582031 -26.796875 46.0625 -26.296875 L 28.96875 -26.296875 L 28.96875 0 L 4.90625 0 L 4.90625 -74.28125 Z M 40.859375 -44.578125 C 45.609375 -44.578125 47.984375 -46.40625 47.984375 -50.0625 C 47.984375 -53.832031 45.609375 -55.71875 40.859375 -55.71875 L 28.96875 -55.71875 L 28.96875 -44.578125 Z M 40.859375 -44.578125 "/></g></g></g><g fill="#ffffff" fill-opacity="1"><g transform="translate(443.483585, 248.150005)"><g><path d="M 44.125 -74.28125 C 52.25 -74.28125 58.515625 -72.175781 62.921875 -67.96875 C 67.328125 -63.757812 69.53125 -57.789062 69.53125 -50.0625 C 69.53125 -42.832031 67.5 -37.1875 63.4375 -33.125 C 59.375 -29.070312 53.582031 -26.796875 46.0625 -26.296875 L 28.96875 -26.296875 L 28.96875 0 L 4.90625 0 L 4.90625 -74.28125 Z M 40.859375 -44.578125 C 45.609375 -44.578125 47.984375 -46.40625 47.984375 -50.0625 C 47.984375 -53.832031 45.609375 -55.71875 40.859375 -55.71875 L 28.96875 -55.71875 L 28.96875 -44.578125 Z M 40.859375 -44.578125 "/></g></g></g><g fill="#ffffff" fill-opacity="1"><g transform="translate(515.386717, 248.150005)"><g><path d="M 61.8125 -20.796875 L 61.8125 0 L 4.90625 0 L 4.90625 -74.28125 L 28.96875 -74.28125 L 28.96875 -20.796875 Z M 61.8125 -20.796875 "/></g></g></g><g fill="#ffffff" fill-opacity="1"><g transform="translate(581.347435, 248.150005)"><g><path d="M 28.96875 -55.71875 L 28.96875 -46.0625 L 61.8125 -46.0625 L 61.8125 -28.234375 L 28.96875 -28.234375 L 28.96875 -18.578125 L 61.8125 -18.578125 L 61.8125 0 L 4.90625 0 L 4.90625 -74.28125 L 61.8125 -74.28125 L 61.8125 -55.71875 Z M 28.96875 -55.71875 "/></g></g></g><g fill="#ffffff" fill-opacity="1"><g transform="translate(648.050967, 248.150005)"><g/></g></g><g fill="#ffffff" fill-opacity="1"><g transform="translate(668.106599, 248.150005)"><g><path d="M 71.171875 0 L 60.46875 0 L 57.796875 -8.171875 C 52.046875 -1.929688 45.359375 1.1875 37.734375 1.1875 C 26.941406 1.1875 18.625 -2.15625 12.78125 -8.84375 C 6.9375 -15.53125 4.015625 -24.960938 4.015625 -37.140625 C 4.015625 -49.421875 6.9375 -58.878906 12.78125 -65.515625 C 18.625 -72.148438 26.941406 -75.46875 37.734375 -75.46875 C 47.046875 -75.46875 54.523438 -73.039062 60.171875 -68.1875 C 65.816406 -63.34375 69.382812 -56.460938 70.875 -47.546875 L 47.390625 -43.390625 C 46.203125 -50.910156 43.035156 -54.671875 37.890625 -54.671875 C 34.617188 -54.671875 32.113281 -53.160156 30.375 -50.140625 C 28.644531 -47.117188 27.78125 -42.785156 27.78125 -37.140625 C 27.78125 -31.597656 28.644531 -27.316406 30.375 -24.296875 C 32.113281 -21.273438 34.617188 -19.765625 37.890625 -19.765625 C 40.660156 -19.765625 42.789062 -21.894531 44.28125 -26.15625 L 37.4375 -26.15625 L 37.4375 -39.375 L 71.609375 -39.375 Z M 71.171875 0 "/></g></g></g><g fill="#ffffff" fill-opacity="1"><g transform="translate(744.466562, 248.150005)"><g><path d="M 53.34375 -10.84375 L 28.375 -10.84375 L 24.359375 0 L 1.046875 0 L 28.828125 -74.28125 L 53.1875 -74.28125 L 80.671875 0 L 57.203125 0 Z M 46.796875 -28.671875 L 41 -49.03125 L 34.921875 -28.671875 Z M 46.796875 -28.671875 "/></g></g></g><g fill="#ffffff" fill-opacity="1"><g transform="translate(825.728992, 248.150005)"><g><path d="M 86.609375 0 L 62.40625 0 L 62.40625 -29.859375 L 50.515625 -8.015625 L 41 -8.015625 L 28.96875 -29.859375 L 28.96875 0 L 4.90625 0 L 4.90625 -74.28125 L 26.453125 -74.28125 L 45.765625 -35.515625 L 65.078125 -74.28125 L 86.609375 -74.28125 Z M 86.609375 0 "/></g></g></g><g fill="#ffffff" fill-opacity="1"><g transform="translate(916.944897, 248.150005)"><g><path d="M 28.96875 -55.71875 L 28.96875 -46.0625 L 61.8125 -46.0625 L 61.8125 -28.234375 L 28.96875 -28.234375 L 28.96875 -18.578125 L 61.8125 -18.578125 L 61.8125 0 L 4.90625 0 L 4.90625 -74.28125 L 61.8125 -74.28125 L 61.8125 -55.71875 Z M 28.96875 -55.71875 "/></g></g></g><g fill="#ffffff" fill-opacity="1"><g transform="translate(983.648474, 248.150005)"><g><path d="M 37.734375 1.046875 C 48.734375 1.140625 57.203125 -0.789062 63.140625 -4.75 C 69.085938 -8.71875 72.0625 -14.414062 72.0625 -21.84375 C 72.0625 -26 70.945312 -29.460938 68.71875 -32.234375 C 66.488281 -35.015625 63.640625 -37.296875 60.171875 -39.078125 C 56.703125 -40.859375 52.984375 -42.316406 49.015625 -43.453125 C 45.054688 -44.597656 41.34375 -45.566406 37.875 -46.359375 C 34.414062 -47.148438 31.570312 -47.960938 29.34375 -48.796875 C 27.113281 -49.640625 26 -50.707031 26 -52 C 26 -55.269531 29.765625 -56.90625 37.296875 -56.90625 C 44.222656 -56.90625 48.628906 -53.882812 50.515625 -47.84375 L 70.125 -53.1875 C 68.144531 -60.320312 64.304688 -65.816406 58.609375 -69.671875 C 52.910156 -73.535156 45.804688 -75.46875 37.296875 -75.46875 C 26.296875 -75.46875 17.820312 -73.488281 11.875 -69.53125 C 5.9375 -65.570312 2.96875 -59.925781 2.96875 -52.59375 C 2.96875 -48.4375 4.082031 -44.992188 6.3125 -42.265625 C 8.539062 -39.546875 11.410156 -37.316406 14.921875 -35.578125 C 18.441406 -33.847656 22.15625 -32.4375 26.0625 -31.34375 C 29.976562 -30.257812 33.691406 -29.320312 37.203125 -28.53125 C 40.722656 -27.738281 43.597656 -26.894531 45.828125 -26 C 48.054688 -25.101562 49.171875 -23.914062 49.171875 -22.4375 C 49.171875 -20.945312 48.179688 -19.804688 46.203125 -19.015625 C 44.222656 -18.222656 41.398438 -17.828125 37.734375 -17.828125 C 30.898438 -17.828125 26.539062 -20.703125 24.65625 -26.453125 L 4.90625 -21.09375 C 6.976562 -13.96875 10.863281 -8.472656 16.5625 -4.609375 C 22.257812 -0.742188 29.316406 1.140625 37.734375 1.046875 Z M 37.734375 1.046875 "/></g></g></g><g fill="#ffffff" fill-opacity="1"><g transform="translate(336.325191, 76.899991)"><g><path d="M 6.390625 0 L 6.390625 -39.203125 L 9.234375 -39.203125 L 9.234375 -20.546875 L 50.453125 -20.546875 L 50.453125 -39.203125 L 53.203125 -39.203125 L 53.203125 0 L 50.453125 0 L 50.453125 -18.03125 L 9.234375 -18.03125 L 9.234375 0 Z M 6.390625 0 "/></g></g></g><g fill="#ffffff" fill-opacity="1"><g transform="translate(395.900873, 76.899991)"><g><path d="M 1.28125 0 L 27.890625 -39.8125 L 28.5 -39.8125 L 55.15625 0 L 51.796875 0 L 46.53125 -8.0625 L 9.578125 -8.0625 L 4.3125 0 Z M 11.09375 -10.25 L 45.078125 -10.25 L 28.34375 -35.671875 L 27.9375 -35.671875 Z M 11.09375 -10.25 "/></g></g></g><g fill="#ffffff" fill-opacity="1"><g transform="translate(452.285005, 76.899991)"><g><path d="M 6.390625 0 L 6.390625 -39.203125 L 9.359375 -39.203125 L 9.359375 -2.46875 L 46.203125 -2.46875 L 46.203125 0 Z M 6.390625 0 "/></g></g></g><g fill="#ffffff" fill-opacity="1"><g transform="translate(501.502138, 76.899991)"><g><path d="M 6.390625 0 L 6.390625 -39.203125 L 46.25 -39.203125 L 46.25 -36.734375 L 9.359375 -36.734375 L 9.359375 -20.4375 L 34.5 -20.4375 L 34.5 -18.203125 L 9.359375 -18.203125 L 9.359375 0 Z M 6.390625 0 "/></g></g></g><g fill="#ffffff" fill-opacity="1"><g transform="translate(550.383317, 76.899991)"><g/></g></g><g fill="#ffffff" fill-opacity="1"><g transform="translate(564.885292, 76.899991)"><g><path d="M 6.390625 0 L 6.390625 -39.203125 L 9.234375 -39.203125 L 9.234375 -20.546875 L 50.453125 -20.546875 L 50.453125 -39.203125 L 53.203125 -39.203125 L 53.203125 0 L 50.453125 0 L 50.453125 -18.03125 L 9.234375 -18.03125 L 9.234375 0 Z M 6.390625 0 "/></g></g></g><g fill="#ffffff" fill-opacity="1"><g transform="translate(624.460986, 76.899991)"><g><path d="M 29.796875 0.671875 C 26.429688 0.671875 23.320312 0.257812 20.46875 -0.5625 C 17.613281 -1.382812 15.128906 -2.539062 13.015625 -4.03125 C 10.910156 -5.519531 9.28125 -7.28125 8.125 -9.3125 C 6.96875 -11.351562 6.390625 -13.566406 6.390625 -15.953125 L 6.390625 -39.203125 L 9.359375 -39.203125 L 9.359375 -15.953125 C 9.359375 -13.898438 9.878906 -12.015625 10.921875 -10.296875 C 11.960938 -8.585938 13.414062 -7.097656 15.28125 -5.828125 C 17.15625 -4.554688 19.332031 -3.566406 21.8125 -2.859375 C 24.289062 -2.148438 26.953125 -1.796875 29.796875 -1.796875 C 32.628906 -1.796875 35.285156 -2.148438 37.765625 -2.859375 C 40.253906 -3.566406 42.429688 -4.554688 44.296875 -5.828125 C 46.160156 -7.097656 47.625 -8.585938 48.6875 -10.296875 C 49.75 -12.015625 50.28125 -13.898438 50.28125 -15.953125 L 50.28125 -39.203125 L 53.203125 -39.203125 L 53.203125 -15.953125 C 53.203125 -13.566406 52.625 -11.351562 51.46875 -9.3125 C 50.3125 -7.28125 48.675781 -5.519531 46.5625 -4.03125 C 44.457031 -2.539062 41.972656 -1.382812 39.109375 -0.5625 C 36.253906 0.257812 33.148438 0.671875 29.796875 0.671875 Z M 29.796875 0.671875 "/></g></g></g><g fill="#ffffff" fill-opacity="1"><g transform="translate(680.732954, 76.899991)"><g><path d="M 2.46875 0 L 14.84375 -39.8125 L 15.953125 -39.8125 L 34.046875 -9.578125 L 34.390625 -9.578125 L 52.703125 -39.8125 L 53.8125 -39.8125 L 66.140625 0 L 63.21875 0 L 52.75 -33.828125 L 52.359375 -33.828125 L 34.9375 -5.15625 L 33.65625 -5.15625 L 16.1875 -33.828125 L 15.84375 -33.828125 L 5.375 0 Z M 2.46875 0 "/></g></g></g><g fill="#ffffff" fill-opacity="1"><g transform="translate(747.643531, 76.899991)"><g><path d="M 1.28125 0 L 27.890625 -39.8125 L 28.5 -39.8125 L 55.15625 0 L 51.796875 0 L 46.53125 -8.0625 L 9.578125 -8.0625 L 4.3125 0 Z M 11.09375 -10.25 L 45.078125 -10.25 L 28.34375 -35.671875 L 27.9375 -35.671875 Z M 11.09375 -10.25 "/></g></g></g><g fill="#ffffff" fill-opacity="1"><g transform="translate(804.027652, 76.899991)"><g><path d="M 51.859375 0.671875 L 9.578125 -35.171875 L 9.234375 -35.171875 L 9.234375 0 L 6.390625 0 L 6.390625 -39.8125 L 7.78125 -39.8125 L 50.0625 -4.09375 L 50.453125 -4.09375 L 50.453125 -39.203125 L 53.203125 -39.203125 L 53.203125 0.671875 Z M 51.859375 0.671875 "/></g></g></g></svg>