<svg xmlns="http://www.w3.org/2000/svg" xmlns:xlink="http://www.w3.org/1999/xlink" width="1600" zoomAndPan="magnify" viewBox="0 0 1200 299.999988" height="400" preserveAspectRatio="xMidYMid meet" version="1.0"><defs><g/></defs><rect x="-120" width="1440" fill="#ffffff" y="-29.999999" height="359.999986" fill-opacity="1"/><rect x="-120" width="1440" fill="#000000" y="-29.999999" height="359.999986" fill-opacity="1"/><g fill="#ffffff" fill-opacity="1"><g transform="translate(256.192385, 234.374981)"><g><path d="M 43.796875 0 L 37.21875 0 L 35.5625 -5.03125 C 32.03125 -1.1875 27.914062 0.734375 23.21875 0.734375 C 16.570312 0.734375 11.453125 -1.320312 7.859375 -5.4375 C 4.265625 -9.550781 2.46875 -15.359375 2.46875 -22.859375 C 2.46875 -30.410156 4.265625 -36.226562 7.859375 -40.3125 C 11.453125 -44.40625 16.570312 -46.453125 23.21875 -46.453125 C 28.945312 -46.453125 33.546875 -44.957031 37.015625 -41.96875 C 40.492188 -38.976562 42.691406 -34.738281 43.609375 -29.25 L 29.171875 -26.703125 C 28.429688 -31.328125 26.476562 -33.640625 23.3125 -33.640625 C 21.300781 -33.640625 19.757812 -32.707031 18.6875 -30.84375 C 17.625 -28.988281 17.09375 -26.328125 17.09375 -22.859375 C 17.09375 -19.441406 17.625 -16.800781 18.6875 -14.9375 C 19.757812 -13.082031 21.300781 -12.15625 23.3125 -12.15625 C 25.019531 -12.15625 26.332031 -13.46875 27.25 -16.09375 L 23.046875 -16.09375 L 23.046875 -24.234375 L 44.0625 -24.234375 Z M 43.796875 0 "/></g></g></g><g fill="#ffffff" fill-opacity="1"><g transform="translate(303.09233, 234.374981)"><g><path d="M 37.578125 -19.75 C 40.867188 -17.125 42.515625 -13.039062 42.515625 -7.5 L 42.515625 0 L 28.984375 0 L 28.984375 -9.421875 C 28.984375 -13.441406 27.09375 -15.785156 23.3125 -16.453125 L 17.828125 -16.453125 L 17.828125 0 L 3.015625 0 L 3.015625 -45.71875 L 27.15625 -45.71875 C 32.15625 -45.71875 36.007812 -44.453125 38.71875 -41.921875 C 41.425781 -39.390625 42.78125 -35.773438 42.78125 -31.078125 C 42.78125 -25.960938 41.046875 -22.1875 37.578125 -19.75 Z M 25.140625 -27.421875 C 28.066406 -27.421875 29.53125 -28.550781 29.53125 -30.8125 C 29.53125 -33.125 28.066406 -34.28125 25.140625 -34.28125 L 17.828125 -34.28125 L 17.828125 -27.421875 Z M 25.140625 -27.421875 "/></g></g></g><g fill="#ffffff" fill-opacity="1"><g transform="translate(348.346671, 234.374981)"><g><path d="M 32.828125 -6.671875 L 17.46875 -6.671875 L 15 0 L 0.640625 0 L 17.734375 -45.71875 L 32.734375 -45.71875 L 49.640625 0 L 35.203125 0 Z M 28.796875 -17.640625 L 25.234375 -30.171875 L 21.484375 -17.640625 Z M 28.796875 -17.640625 "/></g></g></g><g fill="#ffffff" fill-opacity="1"><g transform="translate(398.354991, 234.374981)"><g><path d="M 27.15625 -45.71875 C 32.15625 -45.71875 36.007812 -44.421875 38.71875 -41.828125 C 41.425781 -39.234375 42.78125 -35.5625 42.78125 -30.8125 C 42.78125 -26.363281 41.53125 -22.890625 39.03125 -20.390625 C 36.539062 -17.890625 32.976562 -16.488281 28.34375 -16.1875 L 17.828125 -16.1875 L 17.828125 0 L 3.015625 0 L 3.015625 -45.71875 Z M 25.140625 -27.421875 C 28.066406 -27.421875 29.53125 -28.550781 29.53125 -30.8125 C 29.53125 -33.125 28.066406 -34.28125 25.140625 -34.28125 L 17.828125 -34.28125 L 17.828125 -27.421875 Z M 25.140625 -27.421875 "/></g></g></g><g fill="#ffffff" fill-opacity="1"><g transform="translate(442.603671, 234.374981)"><g><path d="M 27.15625 -45.71875 C 32.15625 -45.71875 36.007812 -44.421875 38.71875 -41.828125 C 41.425781 -39.234375 42.78125 -35.5625 42.78125 -30.8125 C 42.78125 -26.363281 41.53125 -22.890625 39.03125 -20.390625 C 36.539062 -17.890625 32.976562 -16.488281 28.34375 -16.1875 L 17.828125 -16.1875 L 17.828125 0 L 3.015625 0 L 3.015625 -45.71875 Z M 25.140625 -27.421875 C 28.066406 -27.421875 29.53125 -28.550781 29.53125 -30.8125 C 29.53125 -33.125 28.066406 -34.28125 25.140625 -34.28125 L 17.828125 -34.28125 L 17.828125 -27.421875 Z M 25.140625 -27.421875 "/></g></g></g><g fill="#ffffff" fill-opacity="1"><g transform="translate(486.85234, 234.374981)"><g><path d="M 38.03125 -12.796875 L 38.03125 0 L 3.015625 0 L 3.015625 -45.71875 L 17.828125 -45.71875 L 17.828125 -12.796875 Z M 38.03125 -12.796875 "/></g></g></g><g fill="#ffffff" fill-opacity="1"><g transform="translate(527.444118, 234.374981)"><g><path d="M 17.828125 -34.28125 L 17.828125 -28.34375 L 38.03125 -28.34375 L 38.03125 -17.375 L 17.828125 -17.375 L 17.828125 -11.421875 L 38.03125 -11.421875 L 38.03125 0 L 3.015625 0 L 3.015625 -45.71875 L 38.03125 -45.71875 L 38.03125 -34.28125 Z M 17.828125 -34.28125 "/></g></g></g><g fill="#ffffff" fill-opacity="1"><g transform="translate(568.497047, 234.374981)"><g/></g></g><g fill="#ffffff" fill-opacity="1"><g transform="translate(580.839145, 234.374981)"><g/></g></g><g fill="#ffffff" fill-opacity="1"><g transform="translate(593.188455, 234.374981)"><g><path d="M 37.578125 -19.75 C 40.867188 -17.125 42.515625 -13.039062 42.515625 -7.5 L 42.515625 0 L 28.984375 0 L 28.984375 -9.421875 C 28.984375 -13.441406 27.09375 -15.785156 23.3125 -16.453125 L 17.828125 -16.453125 L 17.828125 0 L 3.015625 0 L 3.015625 -45.71875 L 27.15625 -45.71875 C 32.15625 -45.71875 36.007812 -44.453125 38.71875 -41.921875 C 41.425781 -39.390625 42.78125 -35.773438 42.78125 -31.078125 C 42.78125 -25.960938 41.046875 -22.1875 37.578125 -19.75 Z M 25.140625 -27.421875 C 28.066406 -27.421875 29.53125 -28.550781 29.53125 -30.8125 C 29.53125 -33.125 28.066406 -34.28125 25.140625 -34.28125 L 17.828125 -34.28125 L 17.828125 -27.421875 Z M 25.140625 -27.421875 "/></g></g></g><g fill="#ffffff" fill-opacity="1"><g transform="translate(637.894247, 234.374981)"><g><path d="M 23.953125 0.734375 C 17.128906 0.734375 11.84375 -1.320312 8.09375 -5.4375 C 4.34375 -9.550781 2.46875 -15.359375 2.46875 -22.859375 C 2.46875 -30.410156 4.34375 -36.226562 8.09375 -40.3125 C 11.84375 -44.40625 17.128906 -46.453125 23.953125 -46.453125 C 30.835938 -46.453125 36.140625 -44.40625 39.859375 -40.3125 C 43.578125 -36.226562 45.4375 -30.410156 45.4375 -22.859375 C 45.4375 -15.359375 43.578125 -9.550781 39.859375 -5.4375 C 36.140625 -1.320312 30.835938 0.734375 23.953125 0.734375 Z M 23.953125 -12.15625 C 26.085938 -12.15625 27.75 -13.082031 28.9375 -14.9375 C 30.125 -16.800781 30.75 -19.441406 30.8125 -22.859375 C 30.75 -26.328125 30.125 -28.988281 28.9375 -30.84375 C 27.75 -32.707031 26.085938 -33.640625 23.953125 -33.640625 C 21.753906 -33.640625 20.0625 -32.707031 18.875 -30.84375 C 17.6875 -28.988281 17.09375 -26.328125 17.09375 -22.859375 C 17.09375 -19.441406 17.6875 -16.800781 18.875 -14.9375 C 20.0625 -13.082031 21.753906 -12.15625 23.953125 -12.15625 Z M 23.953125 -12.15625 "/></g></g></g><g fill="#ffffff" fill-opacity="1"><g transform="translate(685.708425, 234.374981)"><g><path d="M 3.015625 -45.71875 L 17.828125 -45.71875 L 17.828125 -20.578125 C 17.828125 -17.890625 18.269531 -15.8125 19.15625 -14.34375 C 20.039062 -12.882812 21.304688 -12.15625 22.953125 -12.15625 C 24.535156 -12.15625 25.753906 -12.882812 26.609375 -14.34375 C 27.460938 -15.8125 27.890625 -17.890625 27.890625 -20.578125 L 27.890625 -45.71875 L 42.78125 -45.71875 L 42.78125 -20.578125 C 42.78125 -13.804688 41.039062 -8.5625 37.5625 -4.84375 C 34.09375 -1.125 29.191406 0.734375 22.859375 0.734375 C 16.515625 0.734375 11.617188 -1.125 8.171875 -4.84375 C 4.734375 -8.5625 3.015625 -13.804688 3.015625 -20.578125 Z M 3.015625 -45.71875 "/></g></g></g><g fill="#ffffff" fill-opacity="1"><g transform="translate(731.237024, 234.374981)"><g><path d="M 38.03125 -12.796875 L 38.03125 0 L 3.015625 0 L 3.015625 -45.71875 L 17.828125 -45.71875 L 17.828125 -12.796875 Z M 38.03125 -12.796875 "/></g></g></g><g fill="#ffffff" fill-opacity="1"><g transform="translate(771.828791, 234.374981)"><g><path d="M 17.828125 -34.28125 L 17.828125 -28.34375 L 38.03125 -28.34375 L 38.03125 -17.375 L 17.828125 -17.375 L 17.828125 -11.421875 L 38.03125 -11.421875 L 38.03125 0 L 3.015625 0 L 3.015625 -45.71875 L 38.03125 -45.71875 L 38.03125 -34.28125 Z M 17.828125 -34.28125 "/></g></g></g><g fill="#ffffff" fill-opacity="1"><g transform="translate(812.877692, 234.374981)"><g><path d="M 42.421875 -32.921875 L 29.984375 -32.921875 L 29.984375 0 L 15.171875 0 L 15.171875 -32.921875 L 2.65625 -32.921875 L 2.65625 -45.71875 L 42.421875 -45.71875 Z M 42.421875 -32.921875 "/></g></g></g><g fill="#ffffff" fill-opacity="1"><g transform="translate(857.949191, 234.374981)"><g><path d="M 42.421875 -32.921875 L 29.984375 -32.921875 L 29.984375 0 L 15.171875 0 L 15.171875 -32.921875 L 2.65625 -32.921875 L 2.65625 -45.71875 L 42.421875 -45.71875 Z M 42.421875 -32.921875 "/></g></g></g><g fill="#ffffff" fill-opacity="1"><g transform="translate(902.746398, 234.374981)"><g><path d="M 17.828125 -34.28125 L 17.828125 -28.34375 L 38.03125 -28.34375 L 38.03125 -17.375 L 17.828125 -17.375 L 17.828125 -11.421875 L 38.03125 -11.421875 L 38.03125 0 L 3.015625 0 L 3.015625 -45.71875 L 38.03125 -45.71875 L 38.03125 -34.28125 Z M 17.828125 -34.28125 "/></g></g></g><g fill="#ffffff" fill-opacity="1"><g transform="translate(260.950198, 112.824992)"><g><path d="M 8.203125 0 L 8.203125 -50.40625 L 11.875 -50.40625 L 11.875 -26.421875 L 64.875 -26.421875 L 64.875 -50.40625 L 68.40625 -50.40625 L 68.40625 0 L 64.875 0 L 64.875 -23.1875 L 11.875 -23.1875 L 11.875 0 Z M 8.203125 0 "/></g></g></g><g fill="#ffffff" fill-opacity="1"><g transform="translate(337.558155, 112.824992)"><g><path d="M 1.65625 0 L 35.859375 -51.1875 L 36.640625 -51.1875 L 70.921875 0 L 66.59375 0 L 59.828125 -10.375 L 12.3125 -10.375 L 5.546875 0 Z M 14.25 -13.171875 L 57.953125 -13.171875 L 36.4375 -45.859375 L 35.921875 -45.859375 Z M 14.25 -13.171875 "/></g></g></g><g fill="#ffffff" fill-opacity="1"><g transform="translate(410.062112, 112.824992)"><g><path d="M 8.203125 0 L 8.203125 -50.40625 L 12.03125 -50.40625 L 12.03125 -3.171875 L 59.40625 -3.171875 L 59.40625 0 Z M 8.203125 0 "/></g></g></g><g fill="#ffffff" fill-opacity="1"><g transform="translate(473.350075, 112.824992)"><g><path d="M 8.203125 0 L 8.203125 -50.40625 L 59.46875 -50.40625 L 59.46875 -47.234375 L 12.03125 -47.234375 L 12.03125 -26.28125 L 44.359375 -26.28125 L 44.359375 -23.40625 L 12.03125 -23.40625 L 12.03125 0 Z M 8.203125 0 "/></g></g></g><g fill="#ffffff" fill-opacity="1"><g transform="translate(536.206034, 112.824992)"><g/></g></g><g fill="#ffffff" fill-opacity="1"><g transform="translate(554.854043, 112.824992)"><g><path d="M 8.203125 0 L 8.203125 -50.40625 L 11.875 -50.40625 L 11.875 -26.421875 L 64.875 -26.421875 L 64.875 -50.40625 L 68.40625 -50.40625 L 68.40625 0 L 64.875 0 L 64.875 -23.1875 L 11.875 -23.1875 L 11.875 0 Z M 8.203125 0 "/></g></g></g><g fill="#ffffff" fill-opacity="1"><g transform="translate(631.461978, 112.824992)"><g><path d="M 38.296875 0.859375 C 33.984375 0.859375 29.988281 0.332031 26.3125 -0.71875 C 22.644531 -1.769531 19.453125 -3.253906 16.734375 -5.171875 C 14.023438 -7.097656 11.925781 -9.367188 10.4375 -11.984375 C 8.945312 -14.597656 8.203125 -17.441406 8.203125 -20.515625 L 8.203125 -50.40625 L 12.03125 -50.40625 L 12.03125 -20.515625 C 12.03125 -17.878906 12.703125 -15.457031 14.046875 -13.25 C 15.390625 -11.039062 17.257812 -9.117188 19.65625 -7.484375 C 22.050781 -5.859375 24.84375 -4.585938 28.03125 -3.671875 C 31.226562 -2.753906 34.648438 -2.296875 38.296875 -2.296875 C 41.953125 -2.296875 45.375 -2.753906 48.5625 -3.671875 C 51.757812 -4.585938 54.554688 -5.859375 56.953125 -7.484375 C 59.347656 -9.117188 61.226562 -11.039062 62.59375 -13.25 C 63.96875 -15.457031 64.65625 -17.878906 64.65625 -20.515625 L 64.65625 -50.40625 L 68.40625 -50.40625 L 68.40625 -20.515625 C 68.40625 -17.441406 67.660156 -14.597656 66.171875 -11.984375 C 64.679688 -9.367188 62.578125 -7.097656 59.859375 -5.171875 C 57.148438 -3.253906 53.957031 -1.769531 50.28125 -0.71875 C 46.613281 0.332031 42.617188 0.859375 38.296875 0.859375 Z M 38.296875 0.859375 "/></g></g></g><g fill="#ffffff" fill-opacity="1"><g transform="translate(703.821957, 112.824992)"><g><path d="M 3.171875 0 L 19.078125 -51.1875 L 20.515625 -51.1875 L 43.78125 -12.3125 L 44.203125 -12.3125 L 67.75 -51.1875 L 69.1875 -51.1875 L 85.03125 0 L 81.28125 0 L 67.828125 -43.484375 L 67.3125 -43.484375 L 44.921875 -6.625 L 43.265625 -6.625 L 20.8125 -43.484375 L 20.375 -43.484375 L 6.90625 0 Z M 3.171875 0 "/></g></g></g><g fill="#ffffff" fill-opacity="1"><g transform="translate(789.861928, 112.824992)"><g><path d="M 1.65625 0 L 35.859375 -51.1875 L 36.640625 -51.1875 L 70.921875 0 L 66.59375 0 L 59.828125 -10.375 L 12.3125 -10.375 L 5.546875 0 Z M 14.25 -13.171875 L 57.953125 -13.171875 L 36.4375 -45.859375 L 35.921875 -45.859375 Z M 14.25 -13.171875 "/></g></g></g><g fill="#ffffff" fill-opacity="1"><g transform="translate(862.365874, 112.824992)"><g><path d="M 66.671875 0.859375 L 12.3125 -45.21875 L 11.875 -45.21875 L 11.875 0 L 8.203125 0 L 8.203125 -51.1875 L 10.015625 -51.1875 L 64.375 -5.25 L 64.875 -5.25 L 64.875 -50.40625 L 68.40625 -50.40625 L 68.40625 0.859375 Z M 66.671875 0.859375 "/></g></g></g></svg>