<svg xmlns="http://www.w3.org/2000/svg" xmlns:xlink="http://www.w3.org/1999/xlink" width="1600" zoomAndPan="magnify" viewBox="0 0 1200 299.999988" height="400" preserveAspectRatio="xMidYMid meet" version="1.0"><defs><g/><linearGradient x1="300.000008" gradientTransform="matrix(0.75, 0, 0, 0.75, 0.000024, 0)" y1="699.999992" x2="1299.999967" gradientUnits="userSpaceOnUse" y2="-299.999967" id="7d88cf4b1f"><stop stop-opacity="1" stop-color="rgb(66.668701%, 100%, 30.589294%)" offset="0"/><stop stop-opacity="1" stop-color="rgb(66.668701%, 100%, 30.589294%)" offset="0.125"/><stop stop-opacity="1" stop-color="rgb(66.668701%, 100%, 30.589294%)" offset="0.140625"/><stop stop-opacity="1" stop-color="rgb(66.668701%, 100%, 30.589294%)" offset="0.148438"/><stop stop-opacity="1" stop-color="rgb(66.612244%, 99.481201%, 31.208801%)" offset="0.152344"/><stop stop-opacity="1" stop-color="rgb(66.557312%, 98.962402%, 31.828308%)" offset="0.15625"/><stop stop-opacity="1" stop-color="rgb(66.487122%, 98.313904%, 32.603455%)" offset="0.160156"/><stop stop-opacity="1" stop-color="rgb(66.416931%, 97.666931%, 33.378601%)" offset="0.164063"/><stop stop-opacity="1" stop-color="rgb(66.346741%, 97.018433%, 34.152222%)" offset="0.167969"/><stop stop-opacity="1" stop-color="rgb(66.27655%, 96.37146%, 34.927368%)" offset="0.171875"/><stop stop-opacity="1" stop-color="rgb(66.20636%, 95.722961%, 35.700989%)" offset="0.175781"/><stop stop-opacity="1" stop-color="rgb(66.136169%, 95.075989%, 36.476135%)" offset="0.179688"/><stop stop-opacity="1" stop-color="rgb(66.065979%, 94.42749%, 37.251282%)" offset="0.183594"/><stop stop-opacity="1" stop-color="rgb(65.995789%, 93.780518%, 38.026428%)" offset="0.1875"/><stop stop-opacity="1" stop-color="rgb(65.925598%, 93.132019%, 38.800049%)" offset="0.191406"/><stop stop-opacity="1" stop-color="rgb(65.856934%, 92.485046%, 39.575195%)" offset="0.195313"/><stop stop-opacity="1" stop-color="rgb(65.786743%, 91.836548%, 40.348816%)" offset="0.199219"/><stop stop-opacity="1" stop-color="rgb(65.716553%, 91.189575%, 41.123962%)" offset="0.203125"/><stop stop-opacity="1" stop-color="rgb(65.646362%, 90.541077%, 41.899109%)" offset="0.207031"/><stop stop-opacity="1" stop-color="rgb(65.576172%, 89.894104%, 42.674255%)" offset="0.210938"/><stop stop-opacity="1" stop-color="rgb(65.505981%, 89.245605%, 43.447876%)" offset="0.214844"/><stop stop-opacity="1" stop-color="rgb(65.435791%, 88.598633%, 44.223022%)" offset="0.21875"/><stop stop-opacity="1" stop-color="rgb(65.365601%, 87.950134%, 44.998169%)" offset="0.222656"/><stop stop-opacity="1" stop-color="rgb(65.29541%, 87.303162%, 45.773315%)" offset="0.226563"/><stop stop-opacity="1" stop-color="rgb(65.22522%, 86.654663%, 46.546936%)" offset="0.230469"/><stop stop-opacity="1" stop-color="rgb(65.155029%, 86.00769%, 47.322083%)" offset="0.234375"/><stop stop-opacity="1" stop-color="rgb(65.084839%, 85.359192%, 48.095703%)" offset="0.238281"/><stop stop-opacity="1" stop-color="rgb(65.014648%, 84.712219%, 48.87085%)" offset="0.242188"/><stop stop-opacity="1" stop-color="rgb(64.944458%, 84.063721%, 49.645996%)" offset="0.246094"/><stop stop-opacity="1" stop-color="rgb(64.874268%, 83.416748%, 50.421143%)" offset="0.25"/><stop stop-opacity="1" stop-color="rgb(64.804077%, 82.76825%, 51.194763%)" offset="0.253906"/><stop stop-opacity="1" stop-color="rgb(64.735413%, 82.121277%, 51.96991%)" offset="0.257813"/><stop stop-opacity="1" stop-color="rgb(64.665222%, 81.472778%, 52.74353%)" offset="0.261719"/><stop stop-opacity="1" stop-color="rgb(64.595032%, 80.825806%, 53.518677%)" offset="0.265625"/><stop stop-opacity="1" stop-color="rgb(64.524841%, 80.177307%, 54.293823%)" offset="0.269531"/><stop stop-opacity="1" stop-color="rgb(64.454651%, 79.530334%, 55.06897%)" offset="0.273438"/><stop stop-opacity="1" stop-color="rgb(64.38446%, 78.881836%, 55.84259%)" offset="0.277344"/><stop stop-opacity="1" stop-color="rgb(64.31427%, 78.234863%, 56.617737%)" offset="0.28125"/><stop stop-opacity="1" stop-color="rgb(64.24408%, 77.586365%, 57.392883%)" offset="0.285156"/><stop stop-opacity="1" stop-color="rgb(64.173889%, 76.939392%, 58.16803%)" offset="0.289063"/><stop stop-opacity="1" stop-color="rgb(64.103699%, 76.290894%, 58.94165%)" offset="0.292969"/><stop stop-opacity="1" stop-color="rgb(64.033508%, 75.643921%, 59.716797%)" offset="0.296875"/><stop stop-opacity="1" stop-color="rgb(63.963318%, 74.995422%, 60.490417%)" offset="0.300781"/><stop stop-opacity="1" stop-color="rgb(63.893127%, 74.346924%, 61.265564%)" offset="0.304688"/><stop stop-opacity="1" stop-color="rgb(63.822937%, 73.698425%, 62.04071%)" offset="0.308594"/><stop stop-opacity="1" stop-color="rgb(63.754272%, 73.051453%, 62.815857%)" offset="0.3125"/><stop stop-opacity="1" stop-color="rgb(63.684082%, 72.402954%, 63.589478%)" offset="0.316406"/><stop stop-opacity="1" stop-color="rgb(63.613892%, 71.755981%, 64.364624%)" offset="0.320313"/><stop stop-opacity="1" stop-color="rgb(63.543701%, 71.107483%, 65.138245%)" offset="0.324219"/><stop stop-opacity="1" stop-color="rgb(63.473511%, 70.46051%, 65.913391%)" offset="0.328125"/><stop stop-opacity="1" stop-color="rgb(63.40332%, 69.812012%, 66.688538%)" offset="0.332031"/><stop stop-opacity="1" stop-color="rgb(63.33313%, 69.165039%, 67.463684%)" offset="0.335938"/><stop stop-opacity="1" stop-color="rgb(63.262939%, 68.516541%, 68.237305%)" offset="0.339844"/><stop stop-opacity="1" stop-color="rgb(63.192749%, 67.869568%, 69.012451%)" offset="0.34375"/><stop stop-opacity="1" stop-color="rgb(63.122559%, 67.221069%, 69.786072%)" offset="0.347656"/><stop stop-opacity="1" stop-color="rgb(63.052368%, 66.574097%, 70.561218%)" offset="0.351563"/><stop stop-opacity="1" stop-color="rgb(62.982178%, 65.925598%, 71.336365%)" offset="0.355469"/><stop stop-opacity="1" stop-color="rgb(62.911987%, 65.278625%, 72.111511%)" offset="0.359375"/><stop stop-opacity="1" stop-color="rgb(62.841797%, 64.630127%, 72.885132%)" offset="0.363281"/><stop stop-opacity="1" stop-color="rgb(62.771606%, 63.983154%, 73.660278%)" offset="0.367188"/><stop stop-opacity="1" stop-color="rgb(62.701416%, 63.334656%, 74.435425%)" offset="0.371094"/><stop stop-opacity="1" stop-color="rgb(62.632751%, 62.687683%, 75.210571%)" offset="0.375"/><stop stop-opacity="1" stop-color="rgb(62.562561%, 62.039185%, 75.984192%)" offset="0.378906"/><stop stop-opacity="1" stop-color="rgb(62.492371%, 61.392212%, 76.759338%)" offset="0.382813"/><stop stop-opacity="1" stop-color="rgb(62.42218%, 60.743713%, 77.532959%)" offset="0.386719"/><stop stop-opacity="1" stop-color="rgb(62.35199%, 60.096741%, 78.308105%)" offset="0.390625"/><stop stop-opacity="1" stop-color="rgb(62.281799%, 59.448242%, 79.083252%)" offset="0.394531"/><stop stop-opacity="1" stop-color="rgb(62.211609%, 58.80127%, 79.858398%)" offset="0.398438"/><stop stop-opacity="1" stop-color="rgb(62.141418%, 58.152771%, 80.632019%)" offset="0.402344"/><stop stop-opacity="1" stop-color="rgb(62.071228%, 57.505798%, 81.407166%)" offset="0.40625"/><stop stop-opacity="1" stop-color="rgb(62.001038%, 56.8573%, 82.180786%)" offset="0.410156"/><stop stop-opacity="1" stop-color="rgb(61.930847%, 56.210327%, 82.955933%)" offset="0.414063"/><stop stop-opacity="1" stop-color="rgb(61.860657%, 55.561829%, 83.731079%)" offset="0.417969"/><stop stop-opacity="1" stop-color="rgb(61.790466%, 54.914856%, 84.506226%)" offset="0.421875"/><stop stop-opacity="1" stop-color="rgb(61.720276%, 54.266357%, 85.279846%)" offset="0.425781"/><stop stop-opacity="1" stop-color="rgb(61.650085%, 53.619385%, 86.054993%)" offset="0.429688"/><stop stop-opacity="1" stop-color="rgb(61.579895%, 52.970886%, 86.830139%)" offset="0.433594"/><stop stop-opacity="1" stop-color="rgb(61.51123%, 52.323914%, 87.605286%)" offset="0.4375"/><stop stop-opacity="1" stop-color="rgb(61.44104%, 51.675415%, 88.378906%)" offset="0.441406"/><stop stop-opacity="1" stop-color="rgb(61.37085%, 51.028442%, 89.154053%)" offset="0.445313"/><stop stop-opacity="1" stop-color="rgb(61.300659%, 50.379944%, 89.927673%)" offset="0.449219"/><stop stop-opacity="1" stop-color="rgb(61.230469%, 49.732971%, 90.70282%)" offset="0.453125"/><stop stop-opacity="1" stop-color="rgb(61.160278%, 49.084473%, 91.477966%)" offset="0.457031"/><stop stop-opacity="1" stop-color="rgb(61.090088%, 48.4375%, 92.253113%)" offset="0.460938"/><stop stop-opacity="1" stop-color="rgb(61.019897%, 47.789001%, 93.026733%)" offset="0.464844"/><stop stop-opacity="1" stop-color="rgb(60.949707%, 47.142029%, 93.80188%)" offset="0.46875"/><stop stop-opacity="1" stop-color="rgb(60.879517%, 46.49353%, 94.5755%)" offset="0.472656"/><stop stop-opacity="1" stop-color="rgb(60.809326%, 45.846558%, 95.350647%)" offset="0.476563"/><stop stop-opacity="1" stop-color="rgb(60.739136%, 45.198059%, 96.125793%)" offset="0.480469"/><stop stop-opacity="1" stop-color="rgb(60.668945%, 44.549561%, 96.90094%)" offset="0.484375"/><stop stop-opacity="1" stop-color="rgb(60.598755%, 43.901062%, 97.674561%)" offset="0.488281"/><stop stop-opacity="1" stop-color="rgb(60.53009%, 43.254089%, 98.449707%)" offset="0.492188"/><stop stop-opacity="1" stop-color="rgb(60.4599%, 42.605591%, 99.223328%)" offset="0.496094"/><stop stop-opacity="1" stop-color="rgb(60.389709%, 41.958618%, 99.998474%)" offset="0.5"/><stop stop-opacity="1" stop-color="rgb(60.830688%, 41.78772%, 99.836731%)" offset="0.503906"/><stop stop-opacity="1" stop-color="rgb(61.273193%, 41.618347%, 99.674988%)" offset="0.507812"/><stop stop-opacity="1" stop-color="rgb(61.715698%, 41.447449%, 99.513245%)" offset="0.511719"/><stop stop-opacity="1" stop-color="rgb(62.158203%, 41.27655%, 99.351501%)" offset="0.515625"/><stop stop-opacity="1" stop-color="rgb(62.599182%, 41.105652%, 99.189758%)" offset="0.519531"/><stop stop-opacity="1" stop-color="rgb(63.041687%, 40.934753%, 99.028015%)" offset="0.523438"/><stop stop-opacity="1" stop-color="rgb(63.482666%, 40.763855%, 98.864746%)" offset="0.527344"/><stop stop-opacity="1" stop-color="rgb(63.925171%, 40.594482%, 98.703003%)" offset="0.53125"/><stop stop-opacity="1" stop-color="rgb(64.367676%, 40.423584%, 98.54126%)" offset="0.535156"/><stop stop-opacity="1" stop-color="rgb(64.810181%, 40.252686%, 98.379517%)" offset="0.539062"/><stop stop-opacity="1" stop-color="rgb(65.25116%, 40.081787%, 98.217773%)" offset="0.542969"/><stop stop-opacity="1" stop-color="rgb(65.693665%, 39.910889%, 98.05603%)" offset="0.546875"/><stop stop-opacity="1" stop-color="rgb(66.136169%, 39.73999%, 97.894287%)" offset="0.550781"/><stop stop-opacity="1" stop-color="rgb(66.578674%, 39.570618%, 97.732544%)" offset="0.554688"/><stop stop-opacity="1" stop-color="rgb(67.019653%, 39.399719%, 97.569275%)" offset="0.558594"/><stop stop-opacity="1" stop-color="rgb(67.462158%, 39.228821%, 97.407532%)" offset="0.5625"/><stop stop-opacity="1" stop-color="rgb(67.904663%, 39.057922%, 97.245789%)" offset="0.566406"/><stop stop-opacity="1" stop-color="rgb(68.347168%, 38.887024%, 97.084045%)" offset="0.570312"/><stop stop-opacity="1" stop-color="rgb(68.788147%, 38.716125%, 96.922302%)" offset="0.574219"/><stop stop-opacity="1" stop-color="rgb(69.230652%, 38.546753%, 96.760559%)" offset="0.578125"/><stop stop-opacity="1" stop-color="rgb(69.673157%, 38.375854%, 96.598816%)" offset="0.582031"/><stop stop-opacity="1" stop-color="rgb(70.115662%, 38.204956%, 96.437073%)" offset="0.585938"/><stop stop-opacity="1" stop-color="rgb(70.556641%, 38.034058%, 96.273804%)" offset="0.589844"/><stop stop-opacity="1" stop-color="rgb(70.999146%, 37.863159%, 96.112061%)" offset="0.59375"/><stop stop-opacity="1" stop-color="rgb(71.440125%, 37.692261%, 95.950317%)" offset="0.597656"/><stop stop-opacity="1" stop-color="rgb(71.882629%, 37.522888%, 95.788574%)" offset="0.601562"/><stop stop-opacity="1" stop-color="rgb(72.325134%, 37.35199%, 95.626831%)" offset="0.605469"/><stop stop-opacity="1" stop-color="rgb(72.767639%, 37.181091%, 95.465088%)" offset="0.609375"/><stop stop-opacity="1" stop-color="rgb(73.208618%, 37.010193%, 95.303345%)" offset="0.613281"/><stop stop-opacity="1" stop-color="rgb(73.651123%, 36.839294%, 95.141602%)" offset="0.617188"/><stop stop-opacity="1" stop-color="rgb(74.093628%, 36.668396%, 94.978333%)" offset="0.621094"/><stop stop-opacity="1" stop-color="rgb(74.536133%, 36.499023%, 94.816589%)" offset="0.625"/><stop stop-opacity="1" stop-color="rgb(74.977112%, 36.328125%, 94.654846%)" offset="0.628906"/><stop stop-opacity="1" stop-color="rgb(75.419617%, 36.157227%, 94.493103%)" offset="0.632812"/><stop stop-opacity="1" stop-color="rgb(75.862122%, 35.986328%, 94.33136%)" offset="0.636719"/><stop stop-opacity="1" stop-color="rgb(76.304626%, 35.81543%, 94.169617%)" offset="0.640625"/><stop stop-opacity="1" stop-color="rgb(76.745605%, 35.644531%, 94.007874%)" offset="0.644531"/><stop stop-opacity="1" stop-color="rgb(77.18811%, 35.475159%, 93.84613%)" offset="0.648438"/><stop stop-opacity="1" stop-color="rgb(77.629089%, 35.30426%, 93.682861%)" offset="0.652344"/><stop stop-opacity="1" stop-color="rgb(78.071594%, 35.133362%, 93.521118%)" offset="0.65625"/><stop stop-opacity="1" stop-color="rgb(78.514099%, 34.962463%, 93.359375%)" offset="0.660156"/><stop stop-opacity="1" stop-color="rgb(78.956604%, 34.791565%, 93.197632%)" offset="0.664062"/><stop stop-opacity="1" stop-color="rgb(79.397583%, 34.620667%, 93.035889%)" offset="0.667969"/><stop stop-opacity="1" stop-color="rgb(79.840088%, 34.451294%, 92.874146%)" offset="0.671875"/><stop stop-opacity="1" stop-color="rgb(80.282593%, 34.280396%, 92.712402%)" offset="0.675781"/><stop stop-opacity="1" stop-color="rgb(80.725098%, 34.109497%, 92.550659%)" offset="0.679688"/><stop stop-opacity="1" stop-color="rgb(81.166077%, 33.938599%, 92.38739%)" offset="0.683594"/><stop stop-opacity="1" stop-color="rgb(81.608582%, 33.7677%, 92.225647%)" offset="0.6875"/><stop stop-opacity="1" stop-color="rgb(82.051086%, 33.596802%, 92.063904%)" offset="0.691406"/><stop stop-opacity="1" stop-color="rgb(82.493591%, 33.427429%, 91.902161%)" offset="0.695312"/><stop stop-opacity="1" stop-color="rgb(82.93457%, 33.256531%, 91.740417%)" offset="0.699219"/><stop stop-opacity="1" stop-color="rgb(83.377075%, 33.085632%, 91.578674%)" offset="0.703125"/><stop stop-opacity="1" stop-color="rgb(83.81958%, 32.914734%, 91.415405%)" offset="0.707031"/><stop stop-opacity="1" stop-color="rgb(84.262085%, 32.743835%, 91.253662%)" offset="0.710938"/><stop stop-opacity="1" stop-color="rgb(84.703064%, 32.572937%, 91.091919%)" offset="0.714844"/><stop stop-opacity="1" stop-color="rgb(85.145569%, 32.403564%, 90.930176%)" offset="0.71875"/><stop stop-opacity="1" stop-color="rgb(85.586548%, 32.232666%, 90.768433%)" offset="0.722656"/><stop stop-opacity="1" stop-color="rgb(86.029053%, 32.061768%, 90.606689%)" offset="0.726562"/><stop stop-opacity="1" stop-color="rgb(86.471558%, 31.890869%, 90.444946%)" offset="0.730469"/><stop stop-opacity="1" stop-color="rgb(86.914062%, 31.719971%, 90.283203%)" offset="0.734375"/><stop stop-opacity="1" stop-color="rgb(87.355042%, 31.549072%, 90.119934%)" offset="0.738281"/><stop stop-opacity="1" stop-color="rgb(87.797546%, 31.3797%, 89.958191%)" offset="0.742188"/><stop stop-opacity="1" stop-color="rgb(88.240051%, 31.208801%, 89.796448%)" offset="0.746094"/><stop stop-opacity="1" stop-color="rgb(88.682556%, 31.037903%, 89.634705%)" offset="0.75"/><stop stop-opacity="1" stop-color="rgb(89.123535%, 30.867004%, 89.472961%)" offset="0.753906"/><stop stop-opacity="1" stop-color="rgb(89.56604%, 30.696106%, 89.311218%)" offset="0.757812"/><stop stop-opacity="1" stop-color="rgb(90.008545%, 30.525208%, 89.149475%)" offset="0.761719"/><stop stop-opacity="1" stop-color="rgb(90.45105%, 30.355835%, 88.987732%)" offset="0.765625"/><stop stop-opacity="1" stop-color="rgb(90.892029%, 30.184937%, 88.824463%)" offset="0.769531"/><stop stop-opacity="1" stop-color="rgb(91.334534%, 30.014038%, 88.66272%)" offset="0.773438"/><stop stop-opacity="1" stop-color="rgb(91.775513%, 29.84314%, 88.500977%)" offset="0.777344"/><stop stop-opacity="1" stop-color="rgb(92.218018%, 29.672241%, 88.339233%)" offset="0.78125"/><stop stop-opacity="1" stop-color="rgb(92.660522%, 29.501343%, 88.17749%)" offset="0.785156"/><stop stop-opacity="1" stop-color="rgb(93.103027%, 29.33197%, 88.015747%)" offset="0.789062"/><stop stop-opacity="1" stop-color="rgb(93.544006%, 29.161072%, 87.854004%)" offset="0.792969"/><stop stop-opacity="1" stop-color="rgb(93.986511%, 28.990173%, 87.692261%)" offset="0.796875"/><stop stop-opacity="1" stop-color="rgb(94.429016%, 28.819275%, 87.528992%)" offset="0.800781"/><stop stop-opacity="1" stop-color="rgb(94.871521%, 28.648376%, 87.367249%)" offset="0.804688"/><stop stop-opacity="1" stop-color="rgb(95.3125%, 28.477478%, 87.205505%)" offset="0.808594"/><stop stop-opacity="1" stop-color="rgb(95.755005%, 28.308105%, 87.043762%)" offset="0.8125"/><stop stop-opacity="1" stop-color="rgb(96.19751%, 28.137207%, 86.882019%)" offset="0.816406"/><stop stop-opacity="1" stop-color="rgb(96.640015%, 27.966309%, 86.720276%)" offset="0.820312"/><stop stop-opacity="1" stop-color="rgb(97.080994%, 27.79541%, 86.558533%)" offset="0.824219"/><stop stop-opacity="1" stop-color="rgb(97.523499%, 27.624512%, 86.39679%)" offset="0.828125"/><stop stop-opacity="1" stop-color="rgb(97.966003%, 27.453613%, 86.233521%)" offset="0.832031"/><stop stop-opacity="1" stop-color="rgb(98.408508%, 27.284241%, 86.071777%)" offset="0.835938"/><stop stop-opacity="1" stop-color="rgb(98.849487%, 27.113342%, 85.910034%)" offset="0.839844"/><stop stop-opacity="1" stop-color="rgb(99.291992%, 26.942444%, 85.748291%)" offset="0.84375"/><stop stop-opacity="1" stop-color="rgb(99.645996%, 26.805115%, 85.618591%)" offset="0.847656"/><stop stop-opacity="1" stop-color="rgb(100%, 26.669312%, 85.488892%)" offset="0.851562"/><stop stop-opacity="1" stop-color="rgb(100%, 26.669312%, 85.488892%)" offset="0.859375"/><stop stop-opacity="1" stop-color="rgb(100%, 26.669312%, 85.488892%)" offset="0.875"/><stop stop-opacity="1" stop-color="rgb(100%, 26.669312%, 85.488892%)" offset="1"/></linearGradient></defs><rect x="-120" width="1440" fill="#ffffff" y="-29.999999" height="359.999986" fill-opacity="1"/><rect x="-120" fill="url(#7d88cf4b1f)" width="1440" y="-29.999999" height="359.999986"/><g fill="#000000" fill-opacity="1"><g transform="translate(182.61329, 242.39998)"><g><path d="M 43.203125 -8.359375 C 45.410156 -8.359375 47.132812 -9.097656 48.375 -10.578125 C 49.625 -12.066406 50.515625 -13.867188 51.046875 -15.984375 C 51.578125 -18.097656 51.84375 -20.066406 51.84375 -21.890625 C 51.84375 -25.828125 50.804688 -29.785156 48.734375 -33.765625 C 46.671875 -37.753906 44.203125 -41.234375 41.328125 -44.203125 C 40.171875 -45.453125 38.773438 -46.460938 37.140625 -47.234375 C 35.515625 -48.003906 34.078125 -48.941406 32.828125 -50.046875 C 31.578125 -51.148438 30.953125 -52.753906 30.953125 -54.859375 C 30.953125 -56.785156 32.390625 -57.960938 35.265625 -58.390625 C 38.148438 -58.828125 42.09375 -59.425781 47.09375 -60.1875 C 48.71875 -60.1875 50.488281 -59.679688 52.40625 -58.671875 C 54.332031 -57.671875 56.6875 -57.171875 59.46875 -57.171875 C 62.925781 -57.171875 65.613281 -57.289062 67.53125 -57.53125 C 69.457031 -57.769531 71.332031 -57.890625 73.15625 -57.890625 C 74.113281 -57.890625 74.832031 -57.71875 75.3125 -57.375 C 75.789062 -57.039062 76.03125 -56.203125 76.03125 -54.859375 C 76.03125 -53.515625 75.8125 -52.144531 75.375 -50.75 C 74.945312 -49.363281 74.300781 -48.523438 73.4375 -48.234375 C 71.519531 -47.472656 69.191406 -46.875 66.453125 -46.4375 C 63.722656 -46.007812 61.15625 -45.796875 58.75 -45.796875 C 61.4375 -43.972656 63.8125 -41.140625 65.875 -37.296875 C 67.9375 -33.453125 68.96875 -29.421875 68.96875 -25.203125 C 68.96875 -19.828125 67.382812 -15 64.21875 -10.71875 C 61.050781 -6.445312 56.921875 -3.085938 51.828125 -0.640625 C 46.742188 1.804688 41.273438 3.03125 35.421875 3.03125 C 28.992188 3.03125 23.425781 1.539062 18.71875 -1.4375 C 14.007812 -4.414062 10.117188 -8.328125 7.046875 -13.171875 C 3.984375 -18.023438 1.707031 -23.304688 0.21875 -29.015625 C -1.269531 -34.722656 -2.015625 -40.316406 -2.015625 -45.796875 C -2.015625 -51.554688 -1.148438 -57.21875 0.578125 -62.78125 C 2.304688 -68.351562 4.828125 -73.367188 8.140625 -77.828125 C 11.453125 -82.296875 15.484375 -85.875 20.234375 -88.5625 C 24.984375 -91.25 30.382812 -92.59375 36.4375 -92.59375 C 37.488281 -92.59375 38.492188 -92.445312 39.453125 -92.15625 C 40.410156 -91.875 40.890625 -91.15625 40.890625 -90 C 40.890625 -88.269531 40.382812 -87.019531 39.375 -86.25 C 38.375 -85.488281 37.128906 -84.988281 35.640625 -84.75 C 34.148438 -84.507812 32.6875 -84.316406 31.25 -84.171875 C 29.8125 -84.023438 28.609375 -83.710938 27.640625 -83.234375 C 24.191406 -81.691406 21.53125 -79.410156 19.65625 -76.390625 C 17.78125 -73.367188 16.484375 -69.984375 15.765625 -66.234375 C 15.046875 -62.492188 14.6875 -58.65625 14.6875 -54.71875 C 14.6875 -53.5625 14.804688 -51.640625 15.046875 -48.953125 C 15.285156 -46.265625 15.71875 -43.171875 16.34375 -39.671875 C 16.96875 -36.171875 17.925781 -32.59375 19.21875 -28.9375 C 20.519531 -25.289062 22.203125 -21.90625 24.265625 -18.78125 C 26.328125 -15.664062 28.914062 -13.148438 32.03125 -11.234375 C 35.15625 -9.316406 38.878906 -8.359375 43.203125 -8.359375 Z M 43.203125 -8.359375 "/></g></g></g><g fill="#000000" fill-opacity="1"><g transform="translate(252.165256, 242.39998)"><g><path d="M 3.171875 -97.921875 C 5.085938 -97.921875 6.429688 -97.441406 7.203125 -96.484375 C 7.972656 -95.523438 8.765625 -94.226562 9.578125 -92.59375 C 10.390625 -90.957031 11.660156 -89.179688 13.390625 -87.265625 C 16.460938 -84.003906 20.0625 -80.785156 24.1875 -77.609375 C 28.320312 -74.441406 32.664062 -71.46875 37.21875 -68.6875 C 41.78125 -65.90625 46.195312 -63.457031 50.46875 -61.34375 C 54.738281 -59.226562 58.554688 -57.546875 61.921875 -56.296875 C 67.867188 -54.191406 72.378906 -52.5625 75.453125 -51.40625 C 78.523438 -50.257812 80.0625 -48.390625 80.0625 -45.796875 C 80.0625 -43.585938 78.40625 -41.234375 75.09375 -38.734375 C 71.78125 -36.234375 67.078125 -33.851562 60.984375 -31.59375 C 54.890625 -29.34375 47.710938 -27.453125 39.453125 -25.921875 C 51.648438 -20.347656 61.945312 -15.878906 70.34375 -12.515625 C 78.738281 -9.160156 85.625 -6.59375 91 -4.8125 C 96.382812 -3.039062 100.539062 -1.75 103.46875 -0.9375 C 106.394531 -0.125 108.410156 0.546875 109.515625 1.078125 C 110.617188 1.609375 111.171875 2.304688 111.171875 3.171875 C 111.171875 4.222656 110.378906 5.179688 108.796875 6.046875 C 107.210938 6.910156 105.4375 7.601562 103.46875 8.125 C 101.5 8.65625 99.890625 8.921875 98.640625 8.921875 C 97.585938 8.921875 96.097656 8.828125 94.171875 8.640625 C 92.253906 8.453125 89.640625 7.945312 86.328125 7.125 C 83.015625 6.3125 78.71875 4.992188 73.4375 3.171875 C 68.15625 1.347656 61.648438 -1.191406 53.921875 -4.453125 C 46.203125 -7.722656 36.914062 -11.898438 26.0625 -16.984375 C 27.976562 -12.859375 29.632812 -9.835938 31.03125 -7.921875 C 32.425781 -6.003906 33.578125 -4.753906 34.484375 -4.171875 C 35.398438 -3.597656 36.117188 -3.3125 36.640625 -3.3125 C 37.171875 -3.3125 37.53125 -3.210938 37.71875 -3.015625 C 37.914062 -2.828125 38.015625 -2.160156 38.015625 -1.015625 C 38.015625 -0.148438 37.363281 0.738281 36.0625 1.65625 C 34.769531 2.570312 33.210938 3.390625 31.390625 4.109375 C 29.566406 4.828125 27.8125 5.398438 26.125 5.828125 C 24.445312 6.265625 23.226562 6.484375 22.46875 6.484375 C 20.738281 6.484375 19.082031 5.832031 17.5 4.53125 C 15.914062 3.238281 14.140625 0.695312 12.171875 -3.09375 C 10.203125 -6.882812 7.773438 -12.523438 4.890625 -20.015625 C 1.148438 -29.617188 -1.867188 -49.347656 -4.171875 -79.203125 C -6.578125 -81.597656 -8.1875 -83.515625 -9 -84.953125 C -9.8125 -86.398438 -10.21875 -88.46875 -10.21875 -91.15625 C -10.21875 -92.6875 -9.617188 -93.90625 -8.421875 -94.8125 C -7.222656 -95.726562 -5.78125 -96.398438 -4.09375 -96.828125 C -2.414062 -97.265625 -0.882812 -97.554688 0.5 -97.703125 C 1.894531 -97.847656 2.785156 -97.921875 3.171875 -97.921875 Z M 14.546875 -63.359375 C 14.734375 -61.347656 15.019531 -58.875 15.40625 -55.9375 C 15.789062 -53.007812 16.296875 -49.960938 16.921875 -46.796875 C 17.546875 -43.628906 18.21875 -40.628906 18.9375 -37.796875 C 19.65625 -34.960938 20.351562 -32.679688 21.03125 -30.953125 C 27.070312 -31.335938 32.253906 -31.890625 36.578125 -32.609375 C 40.898438 -33.335938 44.859375 -34.375 48.453125 -35.71875 C 52.054688 -37.0625 55.726562 -38.835938 59.46875 -41.046875 C 50.832031 -43.828125 42.742188 -47.0625 35.203125 -50.75 C 27.671875 -54.445312 20.785156 -58.648438 14.546875 -63.359375 Z M 14.546875 -63.359375 "/></g></g></g><g fill="#000000" fill-opacity="1"><g transform="translate(342.309203, 242.39998)"><g><path d="M 0 -1.875 C -0.1875 -3.40625 -0.351562 -6.210938 -0.5 -10.296875 C -0.644531 -14.378906 -0.765625 -19.175781 -0.859375 -24.6875 C -0.960938 -30.207031 -1.035156 -35.941406 -1.078125 -41.890625 C -1.128906 -47.847656 -1.15625 -53.46875 -1.15625 -58.75 C -1.15625 -64.03125 -1.15625 -68.398438 -1.15625 -71.859375 C -1.15625 -78.191406 -0.703125 -83.132812 0.203125 -86.6875 C 1.117188 -90.238281 3.644531 -92.015625 7.78125 -92.015625 C 8.644531 -92.015625 9.53125 -91.414062 10.4375 -90.21875 C 11.351562 -89.019531 12.4375 -87.316406 13.6875 -85.109375 C 17.039062 -79.148438 21.257812 -72.8125 26.34375 -66.09375 C 31.4375 -59.375 36.957031 -52.582031 42.90625 -45.71875 C 48.863281 -38.851562 54.816406 -32.109375 60.765625 -25.484375 C 62.304688 -23.859375 63.890625 -22.203125 65.515625 -20.515625 C 67.148438 -18.835938 68.566406 -17.300781 69.765625 -15.90625 C 70.960938 -14.519531 71.5625 -13.441406 71.5625 -12.671875 C 71.5625 -10.941406 70.816406 -8.925781 69.328125 -6.625 C 67.847656 -4.320312 66.125 -2.304688 64.15625 -0.578125 C 62.1875 1.148438 60.429688 2.015625 58.890625 2.015625 C 58.796875 2.015625 57.570312 1.414062 55.21875 0.21875 C 52.875 -0.976562 49.898438 -2.460938 46.296875 -4.234375 C 42.691406 -6.015625 38.875 -7.863281 34.84375 -9.78125 C 30.8125 -11.707031 27.039062 -13.414062 23.53125 -14.90625 C 20.03125 -16.394531 17.273438 -17.378906 15.265625 -17.859375 C 15.265625 -11.804688 14.472656 -7.003906 12.890625 -3.453125 C 11.304688 0.0976562 8.066406 1.875 3.171875 1.875 C 2.210938 1.875 1.488281 1.488281 1 0.71875 C 0.519531 -0.0507812 0.1875 -0.914062 0 -1.875 Z M 12.953125 -61.625 C 13.148438 -57.5 13.296875 -54.019531 13.390625 -51.1875 C 13.484375 -48.351562 13.625 -45.59375 13.8125 -42.90625 C 14.007812 -40.21875 14.253906 -36.957031 14.546875 -33.125 C 17.898438 -32.539062 22.53125 -31.023438 28.4375 -28.578125 C 34.34375 -26.128906 41.234375 -22.695312 49.109375 -18.28125 C 45.078125 -21.9375 40.707031 -26.066406 36 -30.671875 C 31.289062 -35.273438 26.875 -40.21875 22.75 -45.5 C 18.625 -50.78125 15.359375 -56.15625 12.953125 -61.625 Z M 12.953125 -61.625 "/></g></g></g><g fill="#000000" fill-opacity="1"><g transform="translate(403.509168, 242.39998)"><g><path d="M 11.09375 -94.03125 C 11.957031 -94.03125 12.578125 -93.742188 12.953125 -93.171875 C 13.242188 -89.898438 13.914062 -86.921875 14.96875 -84.234375 C 16.03125 -81.546875 17.207031 -79.3125 18.5 -77.53125 C 19.800781 -75.757812 20.832031 -74.441406 21.59375 -73.578125 C 22.363281 -72.816406 23.828125 -71.453125 25.984375 -69.484375 C 28.148438 -67.515625 31.609375 -64.726562 36.359375 -61.125 C 41.109375 -57.53125 47.753906 -52.800781 56.296875 -46.9375 C 57.929688 -45.789062 59.320312 -44.425781 60.46875 -42.84375 C 61.625 -41.257812 62.203125 -39.648438 62.203125 -38.015625 C 62.203125 -35.328125 60.929688 -32.660156 58.390625 -30.015625 C 55.847656 -27.378906 52.65625 -25.03125 48.8125 -22.96875 C 44.976562 -20.90625 41.019531 -19.25 36.9375 -18 C 32.851562 -16.75 29.273438 -16.125 26.203125 -16.125 L 23.90625 -16.125 C 26.113281 -12.769531 28.082031 -10.367188 29.8125 -8.921875 C 31.539062 -7.484375 32.882812 -6.351562 33.84375 -5.53125 C 34.800781 -4.71875 35.28125 -3.546875 35.28125 -2.015625 C 35.28125 -1.148438 34.894531 -0.476562 34.125 0 C 33.84375 0.1875 33.023438 0.519531 31.671875 1 C 30.328125 1.488281 28.789062 1.992188 27.0625 2.515625 C 25.34375 3.046875 23.738281 3.503906 22.25 3.890625 C 20.757812 4.273438 19.726562 4.46875 19.15625 4.46875 C 17.90625 4.46875 16.703125 4.082031 15.546875 3.3125 C 14.398438 2.539062 13.128906 0.863281 11.734375 -1.71875 C 10.335938 -4.3125 8.75 -8.320312 6.96875 -13.75 C 5.195312 -19.175781 3.113281 -26.566406 0.71875 -35.921875 C -1.675781 -45.285156 -4.507812 -57.117188 -7.78125 -71.421875 C -7.394531 -72.765625 -6.816406 -73.628906 -6.046875 -74.015625 C -5.273438 -74.398438 -3.644531 -74.785156 -1.15625 -75.171875 C -2.6875 -77.953125 -3.859375 -80.347656 -4.671875 -82.359375 C -5.492188 -84.378906 -5.90625 -86.253906 -5.90625 -87.984375 C -5.90625 -89.804688 -5.207031 -91.125 -3.8125 -91.9375 C -2.425781 -92.757812 -0.75 -93.289062 1.21875 -93.53125 C 3.1875 -93.769531 5.082031 -93.890625 6.90625 -93.890625 C 8.726562 -93.890625 10.125 -93.9375 11.09375 -94.03125 Z M 21.75 -28.375 C 22.03125 -27.3125 22.503906 -26.46875 23.171875 -25.84375 C 23.847656 -25.21875 24.957031 -24.90625 26.5 -24.90625 C 29.664062 -24.90625 32.472656 -25.457031 34.921875 -26.5625 C 37.367188 -27.664062 39.265625 -29.035156 40.609375 -30.671875 C 41.953125 -32.304688 42.625 -33.796875 42.625 -35.140625 C 42.625 -35.804688 42.523438 -36.332031 42.328125 -36.71875 C 42.140625 -37.101562 41.585938 -37.628906 40.671875 -38.296875 C 39.765625 -38.972656 38.28125 -40.054688 36.21875 -41.546875 C 34.15625 -43.035156 31.296875 -45.21875 27.640625 -48.09375 C 23.992188 -50.976562 19.242188 -54.867188 13.390625 -59.765625 C 14.160156 -54.285156 15.265625 -48.953125 16.703125 -43.765625 C 18.140625 -38.585938 19.820312 -33.457031 21.75 -28.375 Z M 21.75 -28.375 "/></g></g></g><g fill="#000000" fill-opacity="1"><g transform="translate(464.709122, 242.39998)"><g><path d="M 11.09375 -94.03125 C 11.957031 -94.03125 12.578125 -93.742188 12.953125 -93.171875 C 13.242188 -89.898438 13.914062 -86.921875 14.96875 -84.234375 C 16.03125 -81.546875 17.207031 -79.3125 18.5 -77.53125 C 19.800781 -75.757812 20.832031 -74.441406 21.59375 -73.578125 C 22.363281 -72.816406 23.828125 -71.453125 25.984375 -69.484375 C 28.148438 -67.515625 31.609375 -64.726562 36.359375 -61.125 C 41.109375 -57.53125 47.753906 -52.800781 56.296875 -46.9375 C 57.929688 -45.789062 59.320312 -44.425781 60.46875 -42.84375 C 61.625 -41.257812 62.203125 -39.648438 62.203125 -38.015625 C 62.203125 -35.328125 60.929688 -32.660156 58.390625 -30.015625 C 55.847656 -27.378906 52.65625 -25.03125 48.8125 -22.96875 C 44.976562 -20.90625 41.019531 -19.25 36.9375 -18 C 32.851562 -16.75 29.273438 -16.125 26.203125 -16.125 L 23.90625 -16.125 C 26.113281 -12.769531 28.082031 -10.367188 29.8125 -8.921875 C 31.539062 -7.484375 32.882812 -6.351562 33.84375 -5.53125 C 34.800781 -4.71875 35.28125 -3.546875 35.28125 -2.015625 C 35.28125 -1.148438 34.894531 -0.476562 34.125 0 C 33.84375 0.1875 33.023438 0.519531 31.671875 1 C 30.328125 1.488281 28.789062 1.992188 27.0625 2.515625 C 25.34375 3.046875 23.738281 3.503906 22.25 3.890625 C 20.757812 4.273438 19.726562 4.46875 19.15625 4.46875 C 17.90625 4.46875 16.703125 4.082031 15.546875 3.3125 C 14.398438 2.539062 13.128906 0.863281 11.734375 -1.71875 C 10.335938 -4.3125 8.75 -8.320312 6.96875 -13.75 C 5.195312 -19.175781 3.113281 -26.566406 0.71875 -35.921875 C -1.675781 -45.285156 -4.507812 -57.117188 -7.78125 -71.421875 C -7.394531 -72.765625 -6.816406 -73.628906 -6.046875 -74.015625 C -5.273438 -74.398438 -3.644531 -74.785156 -1.15625 -75.171875 C -2.6875 -77.953125 -3.859375 -80.347656 -4.671875 -82.359375 C -5.492188 -84.378906 -5.90625 -86.253906 -5.90625 -87.984375 C -5.90625 -89.804688 -5.207031 -91.125 -3.8125 -91.9375 C -2.425781 -92.757812 -0.75 -93.289062 1.21875 -93.53125 C 3.1875 -93.769531 5.082031 -93.890625 6.90625 -93.890625 C 8.726562 -93.890625 10.125 -93.9375 11.09375 -94.03125 Z M 21.75 -28.375 C 22.03125 -27.3125 22.503906 -26.46875 23.171875 -25.84375 C 23.847656 -25.21875 24.957031 -24.90625 26.5 -24.90625 C 29.664062 -24.90625 32.472656 -25.457031 34.921875 -26.5625 C 37.367188 -27.664062 39.265625 -29.035156 40.609375 -30.671875 C 41.953125 -32.304688 42.625 -33.796875 42.625 -35.140625 C 42.625 -35.804688 42.523438 -36.332031 42.328125 -36.71875 C 42.140625 -37.101562 41.585938 -37.628906 40.671875 -38.296875 C 39.765625 -38.972656 38.28125 -40.054688 36.21875 -41.546875 C 34.15625 -43.035156 31.296875 -45.21875 27.640625 -48.09375 C 23.992188 -50.976562 19.242188 -54.867188 13.390625 -59.765625 C 14.160156 -54.285156 15.265625 -48.953125 16.703125 -43.765625 C 18.140625 -38.585938 19.820312 -33.457031 21.75 -28.375 Z M 21.75 -28.375 "/></g></g></g><g fill="#000000" fill-opacity="1"><g transform="translate(525.909099, 242.39998)"><g><path d="M 4.890625 -90.28125 C 8.546875 -90.28125 11.113281 -89.941406 12.59375 -89.265625 C 14.082031 -88.597656 14.828125 -87.304688 14.828125 -85.390625 C 14.828125 -83.953125 14.726562 -82.5625 14.53125 -81.21875 C 14.34375 -79.875 14.25 -78.429688 14.25 -76.890625 C 14.351562 -75.546875 14.570312 -72.953125 14.90625 -69.109375 C 15.238281 -65.273438 15.691406 -60.71875 16.265625 -55.4375 C 16.847656 -50.15625 17.570312 -44.726562 18.4375 -39.15625 C 19.300781 -33.59375 20.332031 -28.410156 21.53125 -23.609375 C 22.726562 -18.816406 24.046875 -14.929688 25.484375 -11.953125 C 26.921875 -8.972656 28.554688 -7.484375 30.390625 -7.484375 C 31.628906 -7.484375 33.304688 -7.890625 35.421875 -8.703125 C 37.535156 -9.523438 39.625 -10.4375 41.6875 -11.4375 C 43.75 -12.445312 45.210938 -13.144531 46.078125 -13.53125 C 48.859375 -14.875 51.804688 -16.289062 54.921875 -17.78125 C 58.046875 -19.269531 60.878906 -20.566406 63.421875 -21.671875 C 65.972656 -22.773438 67.726562 -23.328125 68.6875 -23.328125 C 69.738281 -23.328125 70.789062 -23.035156 71.84375 -22.453125 C 72.90625 -21.878906 73.4375 -20.972656 73.4375 -19.734375 C 73.4375 -18.671875 73.097656 -17.734375 72.421875 -16.921875 C 71.753906 -16.109375 71.035156 -15.457031 70.265625 -14.96875 C 66.046875 -12.1875 62.160156 -9.859375 58.609375 -7.984375 C 55.054688 -6.117188 51.550781 -4.441406 48.09375 -2.953125 C 44.632812 -1.460938 40.84375 0.0976562 36.71875 1.734375 C 34.320312 2.597656 31.992188 3.269531 29.734375 3.75 C 27.484375 4.226562 25.109375 4.46875 22.609375 4.46875 C 19.242188 4.46875 16.289062 3.242188 13.75 0.796875 C 11.207031 -1.648438 9.046875 -4.9375 7.265625 -9.0625 C 5.492188 -13.195312 4.007812 -17.804688 2.8125 -22.890625 C 1.613281 -27.984375 0.65625 -33.191406 -0.0625 -38.515625 C -0.789062 -43.847656 -1.320312 -48.960938 -1.65625 -53.859375 C -1.988281 -58.753906 -2.203125 -63.046875 -2.296875 -66.734375 C -2.398438 -70.429688 -2.453125 -73.144531 -2.453125 -74.875 C -2.453125 -78.90625 -1.96875 -82.476562 -1 -85.59375 C -0.0390625 -88.71875 1.921875 -90.28125 4.890625 -90.28125 Z M 4.890625 -90.28125 "/></g></g></g><g fill="#000000" fill-opacity="1"><g transform="translate(583.797064, 242.39998)"><g><path d="M 24.34375 -90.28125 C 27.789062 -90.28125 31.191406 -89.320312 34.546875 -87.40625 C 37.910156 -85.488281 40.9375 -83.039062 43.625 -80.0625 C 46.3125 -77.082031 48.445312 -74.03125 50.03125 -70.90625 C 51.625 -67.789062 52.421875 -64.988281 52.421875 -62.5 C 52.421875 -59.90625 51.050781 -57.3125 48.3125 -54.71875 C 45.570312 -52.125 41.753906 -49.9375 36.859375 -48.15625 C 31.960938 -46.382812 26.253906 -45.304688 19.734375 -44.921875 C 19.148438 -44.921875 18.570312 -44.921875 18 -44.921875 C 17.425781 -44.921875 16.753906 -44.972656 15.984375 -45.078125 C 16.554688 -40.941406 17.5625 -36.785156 19 -32.609375 C 20.445312 -28.441406 22.203125 -24.628906 24.265625 -21.171875 C 26.328125 -17.710938 28.675781 -14.925781 31.3125 -12.8125 C 33.957031 -10.695312 36.816406 -9.640625 39.890625 -9.640625 C 42.671875 -9.640625 45.066406 -10.429688 47.078125 -12.015625 C 49.097656 -13.609375 50.753906 -15.316406 52.046875 -17.140625 C 53.347656 -18.960938 54.191406 -20.257812 54.578125 -21.03125 C 55.921875 -23.238281 57 -25.015625 57.8125 -26.359375 C 58.632812 -27.703125 59.8125 -28.375 61.34375 -28.375 C 63.070312 -28.375 64.847656 -27.867188 66.671875 -26.859375 C 68.492188 -25.847656 69.40625 -24.671875 69.40625 -23.328125 C 69.40625 -20.347656 68.539062 -17.609375 66.8125 -15.109375 C 65.082031 -12.617188 62.25 -9.835938 58.3125 -6.765625 C 54.757812 -3.890625 51.234375 -1.800781 47.734375 -0.5 C 44.234375 0.789062 41.113281 1.601562 38.375 1.9375 C 35.632812 2.28125 33.546875 2.453125 32.109375 2.453125 C 28.078125 2.453125 24.304688 1.300781 20.796875 -1 C 17.296875 -3.3125 14.15625 -6.3125 11.375 -10 C 8.59375 -13.695312 6.171875 -17.65625 4.109375 -21.875 C 2.046875 -26.101562 0.4375 -30.234375 -0.71875 -34.265625 C -1.875 -38.296875 -2.546875 -41.707031 -2.734375 -44.5 C -5.617188 -45.164062 -7.0625 -46.84375 -7.0625 -49.53125 C -7.0625 -52.21875 -5.859375 -54.378906 -3.453125 -56.015625 C -3.066406 -64.171875 -1.984375 -70.742188 -0.203125 -75.734375 C 1.566406 -80.734375 4.414062 -84.40625 8.34375 -86.75 C 12.28125 -89.101562 17.613281 -90.28125 24.34375 -90.28125 Z M 14.40625 -58.171875 C 17.1875 -58.171875 20.253906 -58.335938 23.609375 -58.671875 C 26.972656 -59.015625 29.878906 -59.59375 32.328125 -60.40625 C 34.773438 -61.21875 36 -62.394531 36 -63.9375 C 36 -66.8125 34.988281 -69.1875 32.96875 -71.0625 C 30.957031 -72.9375 28.628906 -74.328125 25.984375 -75.234375 C 23.347656 -76.148438 21.117188 -76.609375 19.296875 -76.609375 C 18.140625 -76.609375 17.203125 -75.695312 16.484375 -73.875 C 15.765625 -72.050781 15.238281 -69.722656 14.90625 -66.890625 C 14.570312 -64.054688 14.40625 -61.148438 14.40625 -58.171875 Z M 14.40625 -58.171875 "/></g></g><g transform="translate(640.96506, 242.39998)"><g/></g></g><g fill="#000000" fill-opacity="1"><g transform="translate(673.941024, 242.39998)"><g><path d="M 43.203125 -8.359375 C 45.410156 -8.359375 47.132812 -9.097656 48.375 -10.578125 C 49.625 -12.066406 50.515625 -13.867188 51.046875 -15.984375 C 51.578125 -18.097656 51.84375 -20.066406 51.84375 -21.890625 C 51.84375 -25.828125 50.804688 -29.785156 48.734375 -33.765625 C 46.671875 -37.753906 44.203125 -41.234375 41.328125 -44.203125 C 40.171875 -45.453125 38.773438 -46.460938 37.140625 -47.234375 C 35.515625 -48.003906 34.078125 -48.941406 32.828125 -50.046875 C 31.578125 -51.148438 30.953125 -52.753906 30.953125 -54.859375 C 30.953125 -56.785156 32.390625 -57.960938 35.265625 -58.390625 C 38.148438 -58.828125 42.09375 -59.425781 47.09375 -60.1875 C 48.71875 -60.1875 50.488281 -59.679688 52.40625 -58.671875 C 54.332031 -57.671875 56.6875 -57.171875 59.46875 -57.171875 C 62.925781 -57.171875 65.613281 -57.289062 67.53125 -57.53125 C 69.457031 -57.769531 71.332031 -57.890625 73.15625 -57.890625 C 74.113281 -57.890625 74.832031 -57.71875 75.3125 -57.375 C 75.789062 -57.039062 76.03125 -56.203125 76.03125 -54.859375 C 76.03125 -53.515625 75.8125 -52.144531 75.375 -50.75 C 74.945312 -49.363281 74.300781 -48.523438 73.4375 -48.234375 C 71.519531 -47.472656 69.191406 -46.875 66.453125 -46.4375 C 63.722656 -46.007812 61.15625 -45.796875 58.75 -45.796875 C 61.4375 -43.972656 63.8125 -41.140625 65.875 -37.296875 C 67.9375 -33.453125 68.96875 -29.421875 68.96875 -25.203125 C 68.96875 -19.828125 67.382812 -15 64.21875 -10.71875 C 61.050781 -6.445312 56.921875 -3.085938 51.828125 -0.640625 C 46.742188 1.804688 41.273438 3.03125 35.421875 3.03125 C 28.992188 3.03125 23.425781 1.539062 18.71875 -1.4375 C 14.007812 -4.414062 10.117188 -8.328125 7.046875 -13.171875 C 3.984375 -18.023438 1.707031 -23.304688 0.21875 -29.015625 C -1.269531 -34.722656 -2.015625 -40.316406 -2.015625 -45.796875 C -2.015625 -51.554688 -1.148438 -57.21875 0.578125 -62.78125 C 2.304688 -68.351562 4.828125 -73.367188 8.140625 -77.828125 C 11.453125 -82.296875 15.484375 -85.875 20.234375 -88.5625 C 24.984375 -91.25 30.382812 -92.59375 36.4375 -92.59375 C 37.488281 -92.59375 38.492188 -92.445312 39.453125 -92.15625 C 40.410156 -91.875 40.890625 -91.15625 40.890625 -90 C 40.890625 -88.269531 40.382812 -87.019531 39.375 -86.25 C 38.375 -85.488281 37.128906 -84.988281 35.640625 -84.75 C 34.148438 -84.507812 32.6875 -84.316406 31.25 -84.171875 C 29.8125 -84.023438 28.609375 -83.710938 27.640625 -83.234375 C 24.191406 -81.691406 21.53125 -79.410156 19.65625 -76.390625 C 17.78125 -73.367188 16.484375 -69.984375 15.765625 -66.234375 C 15.046875 -62.492188 14.6875 -58.65625 14.6875 -54.71875 C 14.6875 -53.5625 14.804688 -51.640625 15.046875 -48.953125 C 15.285156 -46.265625 15.71875 -43.171875 16.34375 -39.671875 C 16.96875 -36.171875 17.925781 -32.59375 19.21875 -28.9375 C 20.519531 -25.289062 22.203125 -21.90625 24.265625 -18.78125 C 26.328125 -15.664062 28.914062 -13.148438 32.03125 -11.234375 C 35.15625 -9.316406 38.878906 -8.359375 43.203125 -8.359375 Z M 43.203125 -8.359375 "/></g></g></g><g fill="#000000" fill-opacity="1"><g transform="translate(743.49299, 242.39998)"><g><path d="M 0 -1.875 C -0.1875 -3.40625 -0.351562 -6.210938 -0.5 -10.296875 C -0.644531 -14.378906 -0.765625 -19.175781 -0.859375 -24.6875 C -0.960938 -30.207031 -1.035156 -35.941406 -1.078125 -41.890625 C -1.128906 -47.847656 -1.15625 -53.46875 -1.15625 -58.75 C -1.15625 -64.03125 -1.15625 -68.398438 -1.15625 -71.859375 C -1.15625 -78.191406 -0.703125 -83.132812 0.203125 -86.6875 C 1.117188 -90.238281 3.644531 -92.015625 7.78125 -92.015625 C 8.644531 -92.015625 9.53125 -91.414062 10.4375 -90.21875 C 11.351562 -89.019531 12.4375 -87.316406 13.6875 -85.109375 C 17.039062 -79.148438 21.257812 -72.8125 26.34375 -66.09375 C 31.4375 -59.375 36.957031 -52.582031 42.90625 -45.71875 C 48.863281 -38.851562 54.816406 -32.109375 60.765625 -25.484375 C 62.304688 -23.859375 63.890625 -22.203125 65.515625 -20.515625 C 67.148438 -18.835938 68.566406 -17.300781 69.765625 -15.90625 C 70.960938 -14.519531 71.5625 -13.441406 71.5625 -12.671875 C 71.5625 -10.941406 70.816406 -8.925781 69.328125 -6.625 C 67.847656 -4.320312 66.125 -2.304688 64.15625 -0.578125 C 62.1875 1.148438 60.429688 2.015625 58.890625 2.015625 C 58.796875 2.015625 57.570312 1.414062 55.21875 0.21875 C 52.875 -0.976562 49.898438 -2.460938 46.296875 -4.234375 C 42.691406 -6.015625 38.875 -7.863281 34.84375 -9.78125 C 30.8125 -11.707031 27.039062 -13.414062 23.53125 -14.90625 C 20.03125 -16.394531 17.273438 -17.378906 15.265625 -17.859375 C 15.265625 -11.804688 14.472656 -7.003906 12.890625 -3.453125 C 11.304688 0.0976562 8.066406 1.875 3.171875 1.875 C 2.210938 1.875 1.488281 1.488281 1 0.71875 C 0.519531 -0.0507812 0.1875 -0.914062 0 -1.875 Z M 12.953125 -61.625 C 13.148438 -57.5 13.296875 -54.019531 13.390625 -51.1875 C 13.484375 -48.351562 13.625 -45.59375 13.8125 -42.90625 C 14.007812 -40.21875 14.253906 -36.957031 14.546875 -33.125 C 17.898438 -32.539062 22.53125 -31.023438 28.4375 -28.578125 C 34.34375 -26.128906 41.234375 -22.695312 49.109375 -18.28125 C 45.078125 -21.9375 40.707031 -26.066406 36 -30.671875 C 31.289062 -35.273438 26.875 -40.21875 22.75 -45.5 C 18.625 -50.78125 15.359375 -56.15625 12.953125 -61.625 Z M 12.953125 -61.625 "/></g></g></g><g fill="#000000" fill-opacity="1"><g transform="translate(804.692967, 242.39998)"><g><path d="M 47.515625 -91.15625 C 50.109375 -91.15625 52.21875 -90.097656 53.84375 -87.984375 C 55.476562 -85.867188 57.207031 -82.503906 59.03125 -77.890625 C 60.863281 -73.285156 63.410156 -67.164062 66.671875 -59.53125 C 69.929688 -51.90625 74.492188 -42.570312 80.359375 -31.53125 C 83.710938 -25.195312 86.421875 -20.15625 88.484375 -16.40625 C 90.546875 -12.664062 92.367188 -9.90625 93.953125 -8.125 C 95.546875 -6.351562 97.15625 -5.179688 98.78125 -4.609375 C 100.414062 -4.035156 102.476562 -3.75 104.96875 -3.75 C 105.164062 -3.75 105.429688 -3.769531 105.765625 -3.8125 C 106.097656 -3.863281 106.410156 -3.890625 106.703125 -3.890625 C 107.179688 -3.691406 107.421875 -3.304688 107.421875 -2.734375 C 107.421875 -1.203125 106.582031 0.378906 104.90625 2.015625 C 103.226562 3.648438 101.164062 5.039062 98.71875 6.1875 C 96.269531 7.34375 93.890625 7.921875 91.578125 7.921875 C 85.722656 7.921875 79.867188 3.675781 74.015625 -4.8125 C 68.160156 -13.3125 61.632812 -26.539062 54.4375 -44.5 C 54.144531 -40.75 53.804688 -37.960938 53.421875 -36.140625 C 53.035156 -34.316406 52.578125 -33.046875 52.046875 -32.328125 C 51.523438 -31.609375 50.878906 -30.960938 50.109375 -30.390625 C 49.148438 -29.710938 48.117188 -29.15625 47.015625 -28.71875 C 45.910156 -28.289062 44.6875 -28.078125 43.34375 -28.078125 C 38.0625 -28.078125 33.304688 -29.441406 29.078125 -32.171875 C 24.859375 -34.910156 20.78125 -38.539062 16.84375 -43.0625 C 17.707031 -40.5625 18.617188 -37.941406 19.578125 -35.203125 C 20.546875 -32.472656 21.4375 -30.003906 22.25 -27.796875 C 23.0625 -25.585938 23.660156 -24.003906 24.046875 -23.046875 C 24.617188 -21.703125 25.3125 -20.332031 26.125 -18.9375 C 26.945312 -17.539062 27.453125 -16.316406 27.640625 -15.265625 C 27.359375 -13.535156 26.566406 -11.707031 25.265625 -9.78125 C 23.972656 -7.863281 22.363281 -6.207031 20.4375 -4.8125 C 18.519531 -3.425781 16.457031 -2.734375 14.25 -2.734375 C 11.757812 -2.734375 10.175781 -3.453125 9.5 -4.890625 C 8.832031 -6.335938 8.398438 -7.921875 8.203125 -9.640625 C 8.109375 -9.640625 7.628906 -10.984375 6.765625 -13.671875 C 5.898438 -16.367188 4.84375 -19.851562 3.59375 -24.125 C 2.351562 -28.394531 1.015625 -32.925781 -0.421875 -37.71875 C -1.867188 -42.519531 -3.21875 -47.054688 -4.46875 -51.328125 C -5.71875 -55.609375 -6.722656 -59.09375 -7.484375 -61.78125 C -8.253906 -64.46875 -8.640625 -65.8125 -8.640625 -65.8125 C -8.828125 -66.570312 -9.207031 -67.890625 -9.78125 -69.765625 C -10.363281 -71.640625 -10.867188 -73.441406 -11.296875 -75.171875 C -11.734375 -76.898438 -11.953125 -77.859375 -11.953125 -78.046875 C -11.953125 -79.390625 -11.328125 -80.492188 -10.078125 -81.359375 C -8.828125 -82.222656 -7.3125 -82.894531 -5.53125 -83.375 C -3.757812 -83.851562 -2.082031 -84.210938 -0.5 -84.453125 C 1.082031 -84.691406 2.207031 -84.8125 2.875 -84.8125 C 3.164062 -84.8125 3.789062 -84.140625 4.75 -82.796875 C 5.707031 -81.453125 6.757812 -79.867188 7.90625 -78.046875 C 9.0625 -76.222656 10.164062 -74.492188 11.21875 -72.859375 C 12.28125 -71.234375 13.003906 -70.128906 13.390625 -69.546875 C 18.097656 -63.210938 22.25 -58.125 25.84375 -54.28125 C 29.445312 -50.445312 32.640625 -47.566406 35.421875 -45.640625 C 38.203125 -43.722656 40.601562 -42.378906 42.625 -41.609375 C 42.144531 -53.328125 41.253906 -62.976562 39.953125 -70.5625 C 38.660156 -78.144531 37.488281 -83.472656 36.4375 -86.546875 L 36.4375 -86.6875 C 36.4375 -88.894531 37.5625 -90.191406 39.8125 -90.578125 C 42.070312 -90.960938 44.640625 -91.15625 47.515625 -91.15625 Z M 47.515625 -91.15625 "/></g></g></g><g fill="#000000" fill-opacity="1"><g transform="translate(891.380902, 242.39998)"><g><path d="M 24.34375 -90.28125 C 27.789062 -90.28125 31.191406 -89.320312 34.546875 -87.40625 C 37.910156 -85.488281 40.9375 -83.039062 43.625 -80.0625 C 46.3125 -77.082031 48.445312 -74.03125 50.03125 -70.90625 C 51.625 -67.789062 52.421875 -64.988281 52.421875 -62.5 C 52.421875 -59.90625 51.050781 -57.3125 48.3125 -54.71875 C 45.570312 -52.125 41.753906 -49.9375 36.859375 -48.15625 C 31.960938 -46.382812 26.253906 -45.304688 19.734375 -44.921875 C 19.148438 -44.921875 18.570312 -44.921875 18 -44.921875 C 17.425781 -44.921875 16.753906 -44.972656 15.984375 -45.078125 C 16.554688 -40.941406 17.5625 -36.785156 19 -32.609375 C 20.445312 -28.441406 22.203125 -24.628906 24.265625 -21.171875 C 26.328125 -17.710938 28.675781 -14.925781 31.3125 -12.8125 C 33.957031 -10.695312 36.816406 -9.640625 39.890625 -9.640625 C 42.671875 -9.640625 45.066406 -10.429688 47.078125 -12.015625 C 49.097656 -13.609375 50.753906 -15.316406 52.046875 -17.140625 C 53.347656 -18.960938 54.191406 -20.257812 54.578125 -21.03125 C 55.921875 -23.238281 57 -25.015625 57.8125 -26.359375 C 58.632812 -27.703125 59.8125 -28.375 61.34375 -28.375 C 63.070312 -28.375 64.847656 -27.867188 66.671875 -26.859375 C 68.492188 -25.847656 69.40625 -24.671875 69.40625 -23.328125 C 69.40625 -20.347656 68.539062 -17.609375 66.8125 -15.109375 C 65.082031 -12.617188 62.25 -9.835938 58.3125 -6.765625 C 54.757812 -3.890625 51.234375 -1.800781 47.734375 -0.5 C 44.234375 0.789062 41.113281 1.601562 38.375 1.9375 C 35.632812 2.28125 33.546875 2.453125 32.109375 2.453125 C 28.078125 2.453125 24.304688 1.300781 20.796875 -1 C 17.296875 -3.3125 14.15625 -6.3125 11.375 -10 C 8.59375 -13.695312 6.171875 -17.65625 4.109375 -21.875 C 2.046875 -26.101562 0.4375 -30.234375 -0.71875 -34.265625 C -1.875 -38.296875 -2.546875 -41.707031 -2.734375 -44.5 C -5.617188 -45.164062 -7.0625 -46.84375 -7.0625 -49.53125 C -7.0625 -52.21875 -5.859375 -54.378906 -3.453125 -56.015625 C -3.066406 -64.171875 -1.984375 -70.742188 -0.203125 -75.734375 C 1.566406 -80.734375 4.414062 -84.40625 8.34375 -86.75 C 12.28125 -89.101562 17.613281 -90.28125 24.34375 -90.28125 Z M 14.40625 -58.171875 C 17.1875 -58.171875 20.253906 -58.335938 23.609375 -58.671875 C 26.972656 -59.015625 29.878906 -59.59375 32.328125 -60.40625 C 34.773438 -61.21875 36 -62.394531 36 -63.9375 C 36 -66.8125 34.988281 -69.1875 32.96875 -71.0625 C 30.957031 -72.9375 28.628906 -74.328125 25.984375 -75.234375 C 23.347656 -76.148438 21.117188 -76.609375 19.296875 -76.609375 C 18.140625 -76.609375 17.203125 -75.695312 16.484375 -73.875 C 15.765625 -72.050781 15.238281 -69.722656 14.90625 -66.890625 C 14.570312 -64.054688 14.40625 -61.148438 14.40625 -58.171875 Z M 14.40625 -58.171875 "/></g></g><g transform="translate(948.548897, 242.39998)"><g><path d="M 7.0625 -6.765625 C 7.0625 -8.492188 7.898438 -10.078125 9.578125 -11.515625 C 11.253906 -12.960938 13.171875 -14.113281 15.328125 -14.96875 C 17.492188 -15.832031 19.296875 -16.265625 20.734375 -16.265625 C 20.929688 -16.265625 21.21875 -16.171875 21.59375 -15.984375 C 21.59375 -13.484375 22.050781 -11.65625 22.96875 -10.5 C 23.882812 -9.351562 25.441406 -8.660156 27.640625 -8.421875 C 29.847656 -8.179688 32.875 -8.0625 36.71875 -8.0625 C 38.351562 -8.0625 40.296875 -8.132812 42.546875 -8.28125 C 44.804688 -8.425781 47.015625 -8.738281 49.171875 -9.21875 C 51.335938 -9.695312 53.140625 -10.460938 54.578125 -11.515625 C 56.015625 -12.578125 56.734375 -14.019531 56.734375 -15.84375 C 56.734375 -16.03125 56.445312 -16.289062 55.875 -16.625 C 55.300781 -16.96875 54.050781 -17.546875 52.125 -18.359375 C 50.207031 -19.171875 47.234375 -20.25 43.203125 -21.59375 C 39.171875 -22.9375 33.648438 -24.664062 26.640625 -26.78125 C 24.910156 -27.351562 22.628906 -28.238281 19.796875 -29.4375 C 16.960938 -30.644531 14.101562 -32.445312 11.21875 -34.84375 C 8.34375 -37.25 5.921875 -40.488281 3.953125 -44.5625 C 1.992188 -48.644531 1.015625 -53.804688 1.015625 -60.046875 C 1.015625 -63.890625 1.875 -67.394531 3.59375 -70.5625 C 5.320312 -73.726562 7.578125 -76.460938 10.359375 -78.765625 C 13.148438 -81.066406 16.175781 -82.84375 19.4375 -84.09375 C 22.707031 -85.34375 25.828125 -85.96875 28.796875 -85.96875 C 32.160156 -85.96875 36.144531 -85.101562 40.75 -83.375 L 40.75 -93.890625 C 40.945312 -96.378906 41.546875 -98.507812 42.546875 -100.28125 C 43.554688 -102.0625 45.742188 -102.953125 49.109375 -102.953125 L 49.6875 -102.953125 C 52.269531 -102.953125 53.5625 -102.617188 53.5625 -101.953125 C 53.5625 -101.566406 53.535156 -100.820312 53.484375 -99.71875 C 53.441406 -98.613281 53.421875 -97.148438 53.421875 -95.328125 C 53.421875 -88.898438 53.6875 -83.476562 54.21875 -79.0625 C 54.75 -74.644531 55.375 -70.945312 56.09375 -67.96875 C 56.8125 -64.988281 57.429688 -62.394531 57.953125 -60.1875 C 58.484375 -57.976562 58.75 -55.769531 58.75 -53.5625 C 58.75 -51.738281 58.554688 -50.203125 58.171875 -48.953125 C 57.785156 -47.710938 56.753906 -46.679688 55.078125 -45.859375 C 53.398438 -45.046875 50.640625 -44.300781 46.796875 -43.625 C 44.972656 -43.625 43.628906 -44.441406 42.765625 -46.078125 C 41.898438 -47.710938 41.226562 -49.820312 40.75 -52.40625 C 40.269531 -55 39.8125 -57.734375 39.375 -60.609375 C 38.945312 -63.492188 38.300781 -66.234375 37.4375 -68.828125 C 36.570312 -71.421875 35.273438 -73.53125 33.546875 -75.15625 C 31.816406 -76.789062 29.46875 -77.609375 26.5 -77.609375 C 24.476562 -77.609375 22.867188 -76.71875 21.671875 -74.9375 C 20.472656 -73.164062 19.632812 -71.128906 19.15625 -68.828125 C 18.675781 -66.523438 18.4375 -64.609375 18.4375 -63.078125 C 18.4375 -58.367188 19.320312 -54.5 21.09375 -51.46875 C 22.875 -48.445312 25.007812 -45.976562 27.5 -44.0625 C 30 -42.144531 32.304688 -40.5625 34.421875 -39.3125 C 35.472656 -38.738281 37.195312 -38.066406 39.59375 -37.296875 C 42 -36.523438 44.664062 -35.753906 47.59375 -34.984375 C 50.519531 -34.222656 53.398438 -33.484375 56.234375 -32.765625 C 59.066406 -32.046875 61.535156 -31.421875 63.640625 -30.890625 C 65.753906 -30.359375 67.101562 -30 67.6875 -29.8125 C 72.957031 -27.695312 75.59375 -25.195312 75.59375 -22.3125 C 75.59375 -18.09375 74.320312 -14.46875 71.78125 -11.4375 C 69.238281 -8.414062 65.925781 -5.921875 61.84375 -3.953125 C 57.769531 -1.992188 53.453125 -0.414062 48.890625 0.78125 C 44.328125 1.988281 39.976562 2.832031 35.84375 3.3125 C 31.71875 3.789062 28.3125 4.03125 25.625 4.03125 C 23.226562 4.03125 20.566406 3.8125 17.640625 3.375 C 14.710938 2.945312 12.21875 1.960938 10.15625 0.421875 C 8.09375 -1.109375 7.0625 -3.503906 7.0625 -6.765625 Z M 7.0625 -6.765625 "/></g></g></g><g fill="#000000" fill-opacity="1"><g transform="translate(336.325191, 76.899991)"><g><path d="M 6.390625 0 L 6.390625 -39.203125 L 9.234375 -39.203125 L 9.234375 -20.546875 L 50.453125 -20.546875 L 50.453125 -39.203125 L 53.203125 -39.203125 L 53.203125 0 L 50.453125 0 L 50.453125 -18.03125 L 9.234375 -18.03125 L 9.234375 0 Z M 6.390625 0 "/></g></g></g><g fill="#000000" fill-opacity="1"><g transform="translate(395.900873, 76.899991)"><g><path d="M 1.28125 0 L 27.890625 -39.8125 L 28.5 -39.8125 L 55.15625 0 L 51.796875 0 L 46.53125 -8.0625 L 9.578125 -8.0625 L 4.3125 0 Z M 11.09375 -10.25 L 45.078125 -10.25 L 28.34375 -35.671875 L 27.9375 -35.671875 Z M 11.09375 -10.25 "/></g></g></g><g fill="#000000" fill-opacity="1"><g transform="translate(452.285005, 76.899991)"><g><path d="M 6.390625 0 L 6.390625 -39.203125 L 9.359375 -39.203125 L 9.359375 -2.46875 L 46.203125 -2.46875 L 46.203125 0 Z M 6.390625 0 "/></g></g></g><g fill="#000000" fill-opacity="1"><g transform="translate(501.502138, 76.899991)"><g><path d="M 6.390625 0 L 6.390625 -39.203125 L 46.25 -39.203125 L 46.25 -36.734375 L 9.359375 -36.734375 L 9.359375 -20.4375 L 34.5 -20.4375 L 34.5 -18.203125 L 9.359375 -18.203125 L 9.359375 0 Z M 6.390625 0 "/></g></g></g><g fill="#000000" fill-opacity="1"><g transform="translate(550.383317, 76.899991)"><g/></g></g><g fill="#000000" fill-opacity="1"><g transform="translate(564.885292, 76.899991)"><g><path d="M 6.390625 0 L 6.390625 -39.203125 L 9.234375 -39.203125 L 9.234375 -20.546875 L 50.453125 -20.546875 L 50.453125 -39.203125 L 53.203125 -39.203125 L 53.203125 0 L 50.453125 0 L 50.453125 -18.03125 L 9.234375 -18.03125 L 9.234375 0 Z M 6.390625 0 "/></g></g></g><g fill="#000000" fill-opacity="1"><g transform="translate(624.460986, 76.899991)"><g><path d="M 29.796875 0.671875 C 26.429688 0.671875 23.320312 0.257812 20.46875 -0.5625 C 17.613281 -1.382812 15.128906 -2.539062 13.015625 -4.03125 C 10.910156 -5.519531 9.28125 -7.28125 8.125 -9.3125 C 6.96875 -11.351562 6.390625 -13.566406 6.390625 -15.953125 L 6.390625 -39.203125 L 9.359375 -39.203125 L 9.359375 -15.953125 C 9.359375 -13.898438 9.878906 -12.015625 10.921875 -10.296875 C 11.960938 -8.585938 13.414062 -7.097656 15.28125 -5.828125 C 17.15625 -4.554688 19.332031 -3.566406 21.8125 -2.859375 C 24.289062 -2.148438 26.953125 -1.796875 29.796875 -1.796875 C 32.628906 -1.796875 35.285156 -2.148438 37.765625 -2.859375 C 40.253906 -3.566406 42.429688 -4.554688 44.296875 -5.828125 C 46.160156 -7.097656 47.625 -8.585938 48.6875 -10.296875 C 49.75 -12.015625 50.28125 -13.898438 50.28125 -15.953125 L 50.28125 -39.203125 L 53.203125 -39.203125 L 53.203125 -15.953125 C 53.203125 -13.566406 52.625 -11.351562 51.46875 -9.3125 C 50.3125 -7.28125 48.675781 -5.519531 46.5625 -4.03125 C 44.457031 -2.539062 41.972656 -1.382812 39.109375 -0.5625 C 36.253906 0.257812 33.148438 0.671875 29.796875 0.671875 Z M 29.796875 0.671875 "/></g></g></g><g fill="#000000" fill-opacity="1"><g transform="translate(680.732954, 76.899991)"><g><path d="M 2.46875 0 L 14.84375 -39.8125 L 15.953125 -39.8125 L 34.046875 -9.578125 L 34.390625 -9.578125 L 52.703125 -39.8125 L 53.8125 -39.8125 L 66.140625 0 L 63.21875 0 L 52.75 -33.828125 L 52.359375 -33.828125 L 34.9375 -5.15625 L 33.65625 -5.15625 L 16.1875 -33.828125 L 15.84375 -33.828125 L 5.375 0 Z M 2.46875 0 "/></g></g></g><g fill="#000000" fill-opacity="1"><g transform="translate(747.643531, 76.899991)"><g><path d="M 1.28125 0 L 27.890625 -39.8125 L 28.5 -39.8125 L 55.15625 0 L 51.796875 0 L 46.53125 -8.0625 L 9.578125 -8.0625 L 4.3125 0 Z M 11.09375 -10.25 L 45.078125 -10.25 L 28.34375 -35.671875 L 27.9375 -35.671875 Z M 11.09375 -10.25 "/></g></g></g><g fill="#000000" fill-opacity="1"><g transform="translate(804.027652, 76.899991)"><g><path d="M 51.859375 0.671875 L 9.578125 -35.171875 L 9.234375 -35.171875 L 9.234375 0 L 6.390625 0 L 6.390625 -39.8125 L 7.78125 -39.8125 L 50.0625 -4.09375 L 50.453125 -4.09375 L 50.453125 -39.203125 L 53.203125 -39.203125 L 53.203125 0.671875 Z M 51.859375 0.671875 "/></g></g></g></svg>
